<svg version="1.1" xmlns="http://www.w3.org/2000/svg" viewBox="0 0 200.18511131012292 87.54467414153783" width="200.18511131012292" height="87.54467414153783"><!-- svg-source:excalidraw --><metadata></metadata><defs><style class="style-fonts">
      </style></defs><rect x="0" y="0" width="200.18511131012292" height="87.54467414153783" fill="transparent"></rect><g stroke-linecap="round" transform="translate(8.452548454488351 35.83281438910785) rotate(343.4112312189649 91.64000720057311 7.939522681660833)"><path d="M0.89 -1.01 L181.79 -1.06 L182.32 15.64 L-0.92 17.76" stroke="none" stroke-width="0" fill="#846358"></path><path d="M1.52 -1.08 C46.39 -0.29, 92.04 -0.77, 183.32 0.35 M-0.77 -0.76 C63.97 -1.37, 128.33 0.34, 182.79 0.06 M181.71 0.84 C184.63 6.37, 181.71 12.22, 183.42 16.95 M183.28 0.21 C183.3 4.98, 183.41 8.85, 182.49 15.39 M183.46 15.18 C141.68 16.11, 100.35 14.52, 1.12 14.02 M183.69 16.08 C140.38 15.78, 97.55 14.54, -0.01 16.06 M-1.34 16.9 C1.04 12.04, -0.81 7.35, -0.8 -1.43 M0.39 15.97 C-0.43 10.83, 0.12 6.55, -0.34 0.52" stroke="#846358" stroke-width="1" fill="none"></path></g><g stroke-linecap="round" transform="translate(167.44172913797684 14.49084122946283) rotate(350.71133733713975 0.7593064495495128 8.634017687468258)"><path d="M0.34 -0.22 L0.41 -1.24 L1.05 16.27 L-0.96 19.18" stroke="none" stroke-width="0" fill="#846358"></path><path d="M0.06 -0.04 C0.36 0.15, 0.91 -0.07, 1.51 -0.08 M-0.02 0.05 C0.62 -0.04, 1.23 -0.08, 1.48 -0.06 M1.61 -1.12 C0.12 2.24, 2.72 6.1, 3.06 17.84 M1.56 0.21 C0.61 3.77, 1.9 8.8, 1.94 17.85 M1.61 17.13 C0.86 17.16, 0.46 17.22, -0.04 17.41 M1.45 17.3 C1.12 17.23, 0.59 17.3, 0.07 17.27 M0.74 18.76 C1.43 10.87, -0.66 3.61, -1.71 -1.61 M0.2 17.14 C-0.11 12.22, 0.59 4.89, -0.77 0.09" stroke="#ffd700" stroke-width="4" fill="none"></path></g><g stroke-linecap="round"><g transform="translate(167.7020809874548 33.22536049157566) rotate(0 -1.9012389566910315 13.4892301071485)"><path d="M-1.24 -0.76 C-0.45 8.37, -3.83 20.73, -2.11 26.63 M-0.07 0.6 C-0.79 5.67, -2.46 10.88, -4.24 26.56" stroke="#ffd700" stroke-width="2" fill="none"></path></g></g><mask></mask><g stroke-linecap="round"><g transform="translate(171.11790483849109 32.64471946965409) rotate(0 1.9012389566910315 13.4892301071485)"><path d="M-1.31 -0.27 C-0.11 12.19, 4.32 19.24, 4.2 26.48 M-0.74 -0.18 C2.47 10.33, 3.95 18.9, 3.27 27.33" stroke="#ffd700" stroke-width="2" fill="none"></path></g></g><mask></mask><g stroke-linecap="round" transform="translate(165.25718990756286 31.240918063860363) rotate(0 4.647050739479255 1.0193266098522145)"><path d="M0.84 0.9 L8.13 0.23 L9.05 0.72 L1.11 1.11" stroke="none" stroke-width="0" fill="#846358"></path><path d="M0.37 -0.33 C2.83 0.43, 5.91 0.57, 9.85 0.27 M-0.21 0.06 C3.81 0.24, 6.93 0.13, 9.59 -0.25 M9.34 0.02 C9.41 0.46, 9.31 1.07, 9.36 2.1 M9.31 0 C9.28 0.46, 9.25 1, 9.31 1.98 M9.39 1.97 C6.32 2.29, 1.96 1.94, 0.06 1.96 M9.17 2.07 C6.86 1.79, 4.97 1.81, -0.02 1.84 M-0.04 2.15 C-0.04 1.62, -0.07 1.16, -0.04 -0.11 M-0.04 2.11 C-0.02 1.32, 0.01 0.64, -0.04 0.06" stroke="#ffd700" stroke-width="2" fill="none"></path></g><g stroke-linecap="round" transform="translate(27.31703955102512 61.281339463557515) rotate(0 4.467080705212993 3.1479267604803454)"><path d="M4.87 0.08 C5.72 0.16, 6.63 0.66, 7.26 1.12 C7.89 1.58, 8.44 2.24, 8.66 2.83 C8.88 3.42, 9.04 4.11, 8.56 4.67 C8.09 5.23, 6.74 5.93, 5.83 6.18 C4.92 6.43, 4.05 6.46, 3.12 6.19 C2.18 5.92, 0.75 5.21, 0.22 4.57 C-0.3 3.93, -0.25 2.97, -0.03 2.35 C0.19 1.73, 0.81 1.24, 1.56 0.86 C2.3 0.48, 3.89 0.18, 4.43 0.07 C4.97 -0.05, 4.74 0.14, 4.79 0.19 M4.38 0.1 C5.36 0.06, 6.98 -0.05, 7.66 0.4 C8.34 0.84, 8.4 2.11, 8.46 2.78 C8.52 3.44, 8.4 3.81, 8.01 4.38 C7.62 4.95, 6.91 5.87, 6.14 6.21 C5.37 6.55, 4.29 6.72, 3.37 6.43 C2.44 6.14, 1.22 5.07, 0.59 4.48 C-0.04 3.89, -0.59 3.5, -0.4 2.89 C-0.21 2.28, 1.01 1.23, 1.74 0.8 C2.47 0.36, 3.51 0.4, 3.97 0.3 C4.44 0.2, 4.42 0.14, 4.53 0.21" stroke="none" stroke-width="0" fill="#d2bab0"></path><path d="M4.6 -0.07 C5.56 -0.05, 7.22 0.7, 7.93 1.16 C8.64 1.62, 8.89 2.08, 8.87 2.66 C8.84 3.24, 8.39 4.11, 7.79 4.66 C7.19 5.21, 6.16 5.76, 5.29 5.98 C4.42 6.19, 3.32 6.14, 2.55 5.93 C1.78 5.73, 1.12 5.36, 0.68 4.74 C0.24 4.13, -0.26 2.98, -0.1 2.26 C0.06 1.54, 0.77 0.75, 1.63 0.42 C2.49 0.09, 4.47 0.32, 5.04 0.27 C5.61 0.22, 5.11 0.17, 5.04 0.13 M4.72 0.25 C5.71 0.3, 7.27 0.6, 7.94 0.97 C8.61 1.34, 8.66 1.86, 8.72 2.45 C8.78 3.04, 8.7 3.89, 8.28 4.5 C7.86 5.1, 7.17 5.9, 6.22 6.09 C5.26 6.29, 3.52 5.99, 2.54 5.67 C1.55 5.36, 0.7 4.82, 0.3 4.21 C-0.1 3.59, -0.14 2.67, 0.13 1.99 C0.41 1.32, 1.13 0.49, 1.94 0.14 C2.76 -0.2, 4.55 -0.11, 5.02 -0.07 C5.5 -0.03, 4.89 0.29, 4.8 0.4" stroke="#d2bab0" stroke-width="2" fill="none"></path></g><g stroke-linecap="round" transform="translate(66.83956865410528 48.63679415395768) rotate(0 4.467080705212993 3.1479267604803454)"><path d="M4.04 -0.14 C4.95 -0.29, 5.98 0.26, 6.7 0.69 C7.43 1.12, 8.07 1.9, 8.41 2.46 C8.76 3.02, 9.05 3.43, 8.76 4.06 C8.48 4.68, 7.5 5.79, 6.68 6.19 C5.86 6.59, 4.78 6.68, 3.84 6.45 C2.89 6.21, 1.61 5.39, 1 4.79 C0.39 4.2, 0.1 3.52, 0.17 2.89 C0.25 2.26, 0.86 1.47, 1.46 1.03 C2.06 0.58, 3.35 0.4, 3.77 0.2 C4.18 0.01, 3.85 -0.15, 3.94 -0.12 M4.75 0.37 C5.65 0.34, 6.83 0.71, 7.51 1.1 C8.19 1.48, 8.76 2.01, 8.83 2.7 C8.9 3.39, 8.46 4.7, 7.92 5.25 C7.39 5.8, 6.44 5.88, 5.61 6 C4.79 6.12, 3.81 6.24, 2.95 5.99 C2.1 5.75, 0.91 5.15, 0.48 4.54 C0.05 3.93, 0.15 3.04, 0.37 2.34 C0.59 1.64, 1.07 0.65, 1.78 0.33 C2.5 0.01, 4.1 0.41, 4.64 0.42 C5.19 0.43, 5.08 0.33, 5.07 0.39" stroke="none" stroke-width="0" fill="#d2bab0"></path><path d="M3.53 0.18 C4.41 0.05, 5.86 -0.08, 6.75 0.24 C7.64 0.57, 8.57 1.49, 8.88 2.13 C9.19 2.76, 9.01 3.37, 8.59 4.05 C8.18 4.73, 7.14 5.8, 6.37 6.2 C5.61 6.6, 4.91 6.61, 3.98 6.45 C3.04 6.28, 1.45 5.71, 0.77 5.21 C0.09 4.7, -0.17 4.15, -0.11 3.42 C-0.06 2.69, 0.39 1.38, 1.09 0.83 C1.78 0.27, 3.64 0.25, 4.07 0.1 C4.5 -0.06, 3.68 -0.16, 3.66 -0.09 M4.57 -0.47 C5.33 -0.65, 6 -0.23, 6.74 0.21 C7.48 0.65, 8.68 1.42, 8.98 2.16 C9.28 2.91, 8.95 4.07, 8.54 4.7 C8.12 5.32, 7.34 5.63, 6.5 5.93 C5.66 6.23, 4.41 6.64, 3.51 6.47 C2.61 6.3, 1.71 5.49, 1.08 4.91 C0.44 4.33, -0.31 3.72, -0.28 3 C-0.25 2.28, 0.46 1.04, 1.25 0.59 C2.05 0.14, 3.95 0.45, 4.47 0.31 C5 0.17, 4.36 -0.26, 4.38 -0.25" stroke="#d2bab0" stroke-width="2" fill="none"></path></g><g stroke-linecap="round" transform="translate(84.5338248031303 43.997690736815684) rotate(0 4.467080705212993 3.1479267604803454)"><path d="M4.8 -0.08 C5.81 -0.04, 7.11 0.72, 7.81 1.17 C8.52 1.62, 8.96 1.98, 9.03 2.63 C9.11 3.28, 8.81 4.48, 8.25 5.08 C7.68 5.68, 6.61 6.13, 5.65 6.25 C4.69 6.36, 3.32 6.03, 2.48 5.77 C1.63 5.51, 1.01 5.21, 0.6 4.69 C0.19 4.17, -0.19 3.31, -0.01 2.66 C0.17 2.01, 0.92 1.28, 1.68 0.81 C2.44 0.34, 4.04 -0.03, 4.55 -0.16 C5.07 -0.29, 4.78 -0.07, 4.76 0.02 M3.6 -0.22 C4.58 -0.36, 6.14 0.54, 7.04 0.87 C7.93 1.2, 8.64 1.17, 8.97 1.78 C9.29 2.4, 9.36 3.89, 8.98 4.55 C8.6 5.22, 7.6 5.49, 6.67 5.78 C5.75 6.06, 4.41 6.29, 3.43 6.25 C2.45 6.22, 1.43 6.05, 0.8 5.55 C0.17 5.04, -0.45 4.01, -0.35 3.22 C-0.25 2.43, 0.74 1.43, 1.4 0.81 C2.06 0.2, 3.17 -0.27, 3.62 -0.45 C4.07 -0.63, 4.16 -0.46, 4.11 -0.26" stroke="none" stroke-width="0" fill="#d2bab0"></path><path d="M4.22 -0.25 C5.21 -0.28, 6.87 0.35, 7.68 0.78 C8.49 1.21, 9 1.63, 9.06 2.34 C9.11 3.05, 8.56 4.45, 8.02 5.05 C7.48 5.65, 6.72 5.76, 5.81 5.93 C4.91 6.1, 3.5 6.25, 2.58 6.06 C1.67 5.86, 0.7 5.29, 0.31 4.74 C-0.07 4.19, 0.11 3.46, 0.29 2.75 C0.46 2.05, 0.63 0.94, 1.37 0.52 C2.11 0.09, 4.19 0.32, 4.74 0.22 C5.29 0.12, 4.69 -0.12, 4.67 -0.1 M4.56 -0.31 C5.59 -0.49, 6.63 -0.43, 7.3 0.09 C7.97 0.6, 8.46 2.09, 8.59 2.76 C8.72 3.43, 8.39 3.59, 8.07 4.12 C7.74 4.64, 7.43 5.62, 6.61 5.92 C5.79 6.23, 4.09 6.02, 3.15 5.94 C2.2 5.86, 1.5 6.02, 0.94 5.45 C0.38 4.87, -0.27 3.27, -0.23 2.49 C-0.19 1.71, 0.45 1.12, 1.17 0.77 C1.9 0.43, 3.63 0.51, 4.12 0.42 C4.6 0.32, 4.18 0.27, 4.1 0.21" stroke="#d2bab0" stroke-width="2" fill="none"></path></g><g stroke-linecap="round" transform="translate(101.64071543258797 39.31940930572432) rotate(0 4.467080705212993 3.1479267604803454)"><path d="M3.64 0.25 C4.45 0.09, 5.83 -0.02, 6.64 0.34 C7.45 0.71, 8.16 1.72, 8.51 2.43 C8.85 3.14, 9.02 3.97, 8.69 4.6 C8.37 5.22, 7.43 5.93, 6.55 6.18 C5.67 6.44, 4.35 6.3, 3.43 6.14 C2.51 5.98, 1.57 5.82, 1.03 5.25 C0.49 4.67, 0.17 3.39, 0.17 2.7 C0.17 2.01, 0.42 1.57, 1.03 1.09 C1.65 0.6, 3.36 -0.04, 3.86 -0.22 C4.37 -0.41, 4.08 -0.15, 4.08 -0.01 M5.35 -0.2 C6.28 -0.26, 6.88 0.35, 7.5 0.84 C8.12 1.32, 9.05 2.1, 9.08 2.71 C9.12 3.32, 8.28 3.89, 7.74 4.49 C7.19 5.1, 6.76 6.07, 5.82 6.32 C4.87 6.57, 2.89 6.3, 2.05 5.97 C1.21 5.65, 1.1 4.92, 0.78 4.38 C0.47 3.85, -0.12 3.41, 0.14 2.75 C0.41 2.08, 1.63 0.77, 2.37 0.38 C3.1 0, 4.1 0.53, 4.57 0.45 C5.04 0.37, 5.08 -0.07, 5.17 -0.11" stroke="none" stroke-width="0" fill="#d2bab0"></path><path d="M3.8 0.09 C4.67 -0.03, 5.86 0.02, 6.74 0.38 C7.61 0.73, 8.78 1.51, 9.05 2.22 C9.32 2.93, 8.74 4, 8.33 4.66 C7.93 5.32, 7.49 5.89, 6.61 6.19 C5.73 6.48, 4 6.62, 3.06 6.42 C2.12 6.22, 1.5 5.59, 0.97 4.98 C0.45 4.37, -0.13 3.45, -0.07 2.75 C-0.01 2.05, 0.58 1.29, 1.33 0.79 C2.09 0.29, 3.95 -0.14, 4.45 -0.23 C4.95 -0.32, 4.4 0.19, 4.33 0.26 M3.27 0.45 C4.07 0.43, 5.67 0.61, 6.56 0.81 C7.45 1.01, 8.3 1.14, 8.62 1.64 C8.93 2.14, 8.72 3.12, 8.46 3.82 C8.2 4.52, 7.78 5.41, 7.05 5.85 C6.31 6.3, 5.02 6.59, 4.07 6.5 C3.11 6.42, 2.02 5.93, 1.32 5.35 C0.62 4.77, -0.13 3.73, -0.13 3.05 C-0.14 2.37, 0.55 1.7, 1.27 1.27 C1.99 0.84, 3.82 0.64, 4.18 0.48 C4.53 0.31, 3.53 0.3, 3.39 0.29" stroke="#d2bab0" stroke-width="2" fill="none"></path></g><g stroke-linecap="round" transform="translate(118.26411433060002 33.91220861056513) rotate(0 4.467080705212993 3.1479267604803454)"><path d="M4.26 -0.18 C5.2 -0.28, 6.72 0.14, 7.45 0.54 C8.18 0.93, 8.49 1.56, 8.61 2.21 C8.74 2.87, 8.67 3.75, 8.2 4.44 C7.73 5.14, 6.62 6.12, 5.79 6.4 C4.96 6.68, 4.09 6.37, 3.22 6.12 C2.35 5.86, 1.1 5.45, 0.58 4.89 C0.06 4.34, -0.05 3.53, 0.12 2.8 C0.29 2.06, 0.83 0.91, 1.6 0.47 C2.37 0.03, 4.29 0.21, 4.75 0.14 C5.21 0.07, 4.46 -0.04, 4.37 0.04 M5.68 0.03 C6.47 0.14, 6.95 1.03, 7.42 1.55 C7.9 2.08, 8.53 2.56, 8.53 3.19 C8.54 3.82, 7.93 4.86, 7.44 5.31 C6.95 5.77, 6.43 5.82, 5.59 5.92 C4.75 6.02, 3.35 6.21, 2.39 5.9 C1.43 5.59, 0.22 4.73, -0.17 4.06 C-0.57 3.39, -0.34 2.57, 0 1.89 C0.34 1.21, 0.96 0.23, 1.87 -0.01 C2.77 -0.26, 4.8 0.39, 5.43 0.43 C6.06 0.47, 5.75 0.25, 5.66 0.21" stroke="none" stroke-width="0" fill="#d2bab0"></path><path d="M4.91 0.01 C5.86 -0.01, 6.77 0.35, 7.45 0.84 C8.13 1.33, 8.81 2.26, 8.99 2.96 C9.17 3.66, 9.08 4.56, 8.54 5.04 C8.01 5.52, 6.74 5.66, 5.77 5.87 C4.79 6.08, 3.59 6.57, 2.69 6.31 C1.79 6.06, 0.8 4.98, 0.38 4.35 C-0.04 3.72, -0.05 3.18, 0.16 2.53 C0.38 1.89, 0.92 0.93, 1.68 0.47 C2.43 0.02, 4.13 -0.09, 4.69 -0.2 C5.25 -0.31, 5.09 -0.25, 5.04 -0.19 M4.4 0.09 C5.32 0.05, 6.63 0.47, 7.38 0.85 C8.12 1.24, 8.7 1.8, 8.87 2.4 C9.04 3.01, 8.84 3.96, 8.39 4.48 C7.93 4.99, 7.01 5.26, 6.14 5.47 C5.28 5.68, 4.02 5.87, 3.21 5.76 C2.39 5.66, 1.78 5.27, 1.25 4.84 C0.72 4.42, 0.07 3.87, 0.04 3.2 C0.02 2.54, 0.5 1.44, 1.1 0.87 C1.71 0.29, 3.15 -0.04, 3.68 -0.24 C4.2 -0.44, 4.13 -0.39, 4.25 -0.34" stroke="#d2bab0" stroke-width="2" fill="none"></path></g><g stroke-linecap="round" transform="translate(133.54970973673517 29.58680860388563) rotate(0 4.467080705212993 3.1479267604803454)"><path d="M3.75 0.35 C4.6 0.16, 5.71 -0.05, 6.56 0.25 C7.41 0.56, 8.47 1.5, 8.85 2.17 C9.23 2.85, 9.2 3.62, 8.84 4.28 C8.47 4.94, 7.54 5.74, 6.66 6.12 C5.77 6.49, 4.43 6.75, 3.5 6.53 C2.58 6.32, 1.65 5.43, 1.11 4.84 C0.57 4.25, 0.31 3.66, 0.26 2.98 C0.21 2.31, 0.17 1.24, 0.79 0.79 C1.4 0.34, 3.4 0.36, 3.93 0.29 C4.46 0.23, 3.94 0.44, 3.98 0.42 M4.46 0.44 C5.36 0.49, 6.47 0.61, 7.27 0.91 C8.07 1.21, 9.14 1.66, 9.27 2.24 C9.39 2.81, 8.58 3.75, 8.02 4.37 C7.46 5, 6.72 5.76, 5.9 6 C5.08 6.23, 4.03 6.03, 3.13 5.76 C2.22 5.5, 1.03 4.95, 0.47 4.43 C-0.1 3.91, -0.43 3.3, -0.26 2.64 C-0.09 1.98, 0.77 0.95, 1.5 0.46 C2.23 -0.03, 3.62 -0.16, 4.11 -0.3 C4.6 -0.45, 4.36 -0.57, 4.43 -0.39" stroke="none" stroke-width="0" fill="#d2bab0"></path><path d="M4.17 0.04 C5.07 -0.06, 6.64 0.17, 7.47 0.6 C8.29 1.03, 8.95 1.92, 9.12 2.61 C9.29 3.31, 8.95 4.26, 8.47 4.79 C8 5.32, 7.17 5.56, 6.29 5.79 C5.4 6.02, 4.17 6.33, 3.19 6.16 C2.2 5.99, 0.88 5.3, 0.39 4.76 C-0.1 4.22, 0.05 3.56, 0.24 2.92 C0.43 2.29, 0.9 1.47, 1.54 0.94 C2.17 0.41, 3.61 -0.1, 4.04 -0.25 C4.48 -0.4, 4.14 -0.06, 4.16 0.03 M3.64 0.36 C4.5 0.19, 5.94 -0.22, 6.86 0.18 C7.77 0.58, 8.85 2.11, 9.14 2.77 C9.43 3.43, 8.97 3.57, 8.58 4.13 C8.19 4.69, 7.71 5.85, 6.79 6.13 C5.87 6.41, 4.01 5.9, 3.05 5.8 C2.09 5.69, 1.5 6, 1.04 5.48 C0.59 4.97, 0.34 3.5, 0.35 2.71 C0.35 1.92, 0.48 1.2, 1.08 0.73 C1.68 0.25, 3.5 -0.1, 3.92 -0.15 C4.35 -0.21, 3.63 0.26, 3.61 0.39" stroke="#d2bab0" stroke-width="2" fill="none"></path></g><g stroke-linecap="round" transform="translate(148.58396155240462 25.442330786703906) rotate(0 4.467080705212993 3.1479267604803454)"><path d="M4.82 -0.05 C5.66 -0.08, 6.64 0.18, 7.32 0.63 C8 1.09, 8.68 2.05, 8.89 2.69 C9.09 3.34, 9.02 3.89, 8.55 4.51 C8.08 5.12, 7.06 6.09, 6.07 6.36 C5.08 6.63, 3.57 6.39, 2.6 6.12 C1.63 5.85, 0.65 5.29, 0.27 4.72 C-0.11 4.16, 0.13 3.42, 0.32 2.71 C0.52 2, 0.74 0.87, 1.42 0.45 C2.1 0.04, 3.81 0.25, 4.41 0.22 C5 0.19, 4.98 0.22, 5.01 0.26 M5.08 0.42 C5.85 0.39, 6.53 0.35, 7.14 0.77 C7.74 1.2, 8.48 2.29, 8.71 2.96 C8.95 3.63, 9.01 4.24, 8.54 4.8 C8.08 5.35, 6.95 6.04, 5.91 6.28 C4.86 6.53, 3.16 6.51, 2.26 6.3 C1.37 6.08, 0.87 5.71, 0.54 5.01 C0.2 4.3, 0.03 2.83, 0.25 2.07 C0.47 1.3, 1.15 0.76, 1.87 0.44 C2.58 0.12, 4.1 0.18, 4.53 0.14 C4.96 0.1, 4.34 0.16, 4.46 0.19" stroke="none" stroke-width="0" fill="#d2bab0"></path><path d="M4.69 -0.21 C5.63 -0.17, 7.13 0.76, 7.84 1.3 C8.54 1.84, 8.96 2.38, 8.94 3.01 C8.93 3.65, 8.37 4.51, 7.76 5.09 C7.14 5.67, 6.17 6.34, 5.25 6.48 C4.33 6.61, 3.06 6.2, 2.24 5.9 C1.41 5.61, 0.69 5.25, 0.3 4.69 C-0.09 4.14, -0.4 3.27, -0.12 2.59 C0.15 1.9, 1.12 1.07, 1.95 0.6 C2.78 0.13, 4.32 -0.2, 4.86 -0.23 C5.4 -0.26, 5.17 0.31, 5.2 0.42 M5.03 -0.06 C5.98 -0.02, 7.08 0.4, 7.75 0.96 C8.41 1.53, 9.03 2.61, 9.01 3.32 C8.98 4.03, 8.24 4.79, 7.58 5.21 C6.92 5.63, 5.92 5.69, 5.05 5.82 C4.19 5.95, 3.19 6.19, 2.39 5.99 C1.58 5.79, 0.62 5.32, 0.22 4.62 C-0.19 3.93, -0.37 2.47, -0.05 1.82 C0.28 1.17, 1.27 0.99, 2.18 0.72 C3.09 0.46, 5.01 0.37, 5.43 0.22 C5.85 0.07, 4.84 -0.28, 4.7 -0.19" stroke="#d2bab0" stroke-width="2" fill="none"></path></g><g stroke-linecap="round" transform="translate(161.8614742694872 58.60245706580281) rotate(0 2.1283462425662947 3.6276733480144685)"><path d="M1.67 -0.04 C1.97 -0.17, 2.43 -0.03, 2.92 0.46 C3.41 0.96, 4.4 2.29, 4.59 2.93 C4.78 3.57, 4.36 3.68, 4.06 4.29 C3.77 4.91, 3.14 6.13, 2.84 6.63 C2.55 7.13, 2.67 7.36, 2.28 7.31 C1.89 7.25, 0.91 6.87, 0.5 6.32 C0.08 5.77, -0.26 4.88, -0.21 3.98 C-0.16 3.08, 0.4 1.51, 0.79 0.92 C1.18 0.33, 2.04 0.59, 2.15 0.46 C2.25 0.33, 1.56 0.12, 1.42 0.14 M0.98 0.52 C1.08 0.39, 1.66 0.73, 2.06 0.97 C2.47 1.22, 2.96 1.4, 3.4 2.01 C3.85 2.62, 4.75 4.01, 4.72 4.64 C4.69 5.26, 3.67 5.47, 3.2 5.76 C2.74 6.05, 2.45 6.39, 1.92 6.35 C1.39 6.31, 0.21 5.85, 0.03 5.51 C-0.15 5.17, 0.86 5.03, 0.83 4.29 C0.8 3.55, -0.19 1.66, -0.13 1.07 C-0.08 0.48, 0.77 0.96, 1.15 0.73 C1.53 0.5, 2.14 -0.19, 2.14 -0.32" stroke="none" stroke-width="0" fill="#ff8787"></path><path d="M2.86 -0.08 C3.15 0.05, 2.98 0.53, 3.25 1.16 C3.53 1.79, 4.41 3.04, 4.51 3.72 C4.6 4.39, 4.09 4.66, 3.82 5.21 C3.54 5.75, 3.36 6.69, 2.85 6.98 C2.33 7.26, 1.16 7.19, 0.72 6.9 C0.27 6.61, 0.24 6.03, 0.17 5.25 C0.1 4.46, 0.09 3, 0.31 2.18 C0.53 1.35, 1.13 0.59, 1.5 0.29 C1.88 -0.02, 2.32 0.41, 2.56 0.35 C2.8 0.28, 3 -0.21, 2.96 -0.09 M2.6 -0.04 C3.2 -0.19, 4.02 0.04, 4.14 0.7 C4.26 1.36, 3.52 2.91, 3.33 3.92 C3.15 4.92, 3.07 6.2, 3.04 6.71 C3.01 7.23, 3.52 6.85, 3.14 7 C2.77 7.16, 1.23 8.1, 0.78 7.64 C0.33 7.19, 0.56 5.08, 0.44 4.28 C0.31 3.49, -0.07 3.45, 0.03 2.88 C0.14 2.31, 0.57 1.3, 1.07 0.86 C1.58 0.42, 2.76 0.46, 3.07 0.24 C3.38 0.01, 3.1 -0.52, 2.92 -0.5" stroke="#e03131" stroke-width="2" fill="none"></path></g><g stroke-linecap="round" transform="translate(173.6108794023039 58.334901445588685) rotate(0 2.1283462425662947 3.6276733480144685)"><path d="M2.77 0.43 C3.08 0.56, 3.11 0.67, 3.27 1.2 C3.44 1.73, 3.77 2.73, 3.76 3.61 C3.75 4.49, 3.43 5.91, 3.22 6.45 C3.01 6.98, 2.82 6.85, 2.51 6.82 C2.21 6.79, 1.71 6.63, 1.39 6.26 C1.08 5.9, 0.84 5.18, 0.63 4.62 C0.42 4.06, 0.05 3.59, 0.13 2.9 C0.21 2.2, 0.8 0.92, 1.12 0.43 C1.43 -0.05, 1.87 0.11, 2.02 -0.01 C2.17 -0.13, 2.04 -0.42, 2.03 -0.26 M1.92 0.57 C2.54 0.58, 3.91 0.1, 4.24 0.45 C4.56 0.8, 3.95 1.93, 3.85 2.66 C3.75 3.39, 3.72 4.04, 3.65 4.81 C3.57 5.59, 3.66 6.86, 3.4 7.31 C3.13 7.76, 2.64 7.79, 2.06 7.53 C1.47 7.26, 0.15 6.54, -0.11 5.73 C-0.36 4.91, 0.32 3.48, 0.53 2.66 C0.73 1.84, 0.75 1.33, 1.1 0.81 C1.44 0.28, 2.26 -0.22, 2.59 -0.51 C2.91 -0.79, 2.99 -1.04, 3.05 -0.91" stroke="none" stroke-width="0" fill="#ff8787"></path><path d="M1.75 0.33 C2.13 0.15, 3.08 -0.27, 3.44 0.18 C3.8 0.63, 3.72 2.31, 3.92 3 C4.12 3.7, 4.63 3.7, 4.61 4.32 C4.59 4.94, 4.28 6.22, 3.79 6.73 C3.3 7.25, 2.31 7.63, 1.67 7.4 C1.04 7.17, 0.26 6.06, -0.01 5.36 C-0.29 4.67, -0.11 3.82, 0.04 3.23 C0.18 2.65, 0.58 2.39, 0.87 1.84 C1.17 1.28, 1.46 0.16, 1.78 -0.1 C2.1 -0.35, 2.8 0.25, 2.79 0.31 M3.07 0.23 C3.56 0.17, 4.04 0.21, 4.13 0.8 C4.23 1.38, 3.86 2.94, 3.66 3.73 C3.47 4.51, 3.29 4.77, 2.97 5.48 C2.65 6.19, 2.19 7.77, 1.76 7.96 C1.33 8.15, 0.69 7.22, 0.38 6.61 C0.07 6.01, -0.06 4.94, -0.09 4.32 C-0.12 3.7, -0.16 3.58, 0.22 2.9 C0.59 2.22, 1.86 0.82, 2.14 0.25 C2.42 -0.31, 1.85 -0.6, 1.91 -0.5 C1.97 -0.4, 2.35 0.72, 2.49 0.87" stroke="#e03131" stroke-width="2" fill="none"></path></g></svg>