<svg version="1.1" xmlns="http://www.w3.org/2000/svg" viewBox="0 0 167.80122645254323 209.03431347144215" width="167.80122645254323" height="209.03431347144215"><!-- svg-source:excalidraw --><metadata></metadata><defs><style class="style-fonts">
      </style></defs><rect x="0" y="0" width="167.80122645254323" height="209.03431347144215" fill="transparent"></rect><g transform="translate(66.5022145496905 84.17398540067757) rotate(0 6.780678792717026 32.437768545677955)" stroke="none"><path fill="#da77f2" d="M 2.01,0.23 Q 2.01,0.23 1.65,2.49 1.30,4.76 0.86,7.25 0.42,9.74 0.18,11.52 -0.06,13.29 -0.41,15.33 -0.77,17.38 -1.13,19.41 -1.49,21.44 -1.61,22.87 -1.73,24.31 -1.96,25.98 -2.20,27.65 -2.46,29.29 -2.71,30.93 -2.85,32.10 -2.98,33.27 -3.26,34.82 -3.55,36.37 -3.85,37.99 -4.16,39.61 -4.31,40.73 -4.46,41.85 -4.57,43.01 -4.68,44.17 -4.70,45.25 -4.72,46.33 -4.66,47.70 -4.60,49.07 -4.53,50.27 -4.46,51.47 -4.23,53.14 -3.99,54.82 -3.66,56.28 -3.32,57.74 -3.04,58.78 -2.75,59.82 -1.76,60.34 -0.78,60.86 0.55,61.02 1.89,61.18 2.97,61.28 4.06,61.38 5.15,61.37 6.24,61.36 7.47,61.27 8.69,61.18 9.81,60.85 10.92,60.52 12.29,59.46 13.66,58.40 14.64,57.44 15.62,56.48 16.18,55.35 16.74,54.21 16.93,52.97 17.13,51.73 16.91,50.04 16.70,48.35 16.42,47.15 16.14,45.94 15.69,44.52 15.25,43.10 14.70,41.90 14.15,40.70 13.43,39.19 12.72,37.68 12.22,36.50 11.72,35.33 11.15,33.92 10.59,32.52 10.13,31.50 9.67,30.47 8.81,28.37 7.95,26.27 7.28,24.75 6.62,23.24 5.96,21.90 5.30,20.57 4.64,19.43 3.98,18.28 3.30,17.18 2.62,16.07 2.09,15.13 1.55,14.18 0.98,13.07 0.40,11.95 -0.00,10.51 -0.41,9.07 -0.88,7.92 -1.35,6.78 -2.34,5.84 -3.34,4.89 -2.71,0.97 -2.08,-2.94 -1.56,-3.20 -1.03,-3.46 -0.45,-3.53 0.12,-3.61 0.69,-3.49 1.26,-3.38 1.77,-3.09 2.28,-2.80 2.67,-2.36 3.05,-1.92 3.28,-1.38 3.51,-0.84 3.55,-0.26 3.60,0.31 3.45,0.88 3.31,1.45 2.99,1.94 2.67,2.43 2.21,2.79 1.75,3.15 1.20,3.35 0.65,3.55 0.07,3.56 -0.51,3.57 -1.07,3.40 -1.62,3.22 -2.10,2.88 -2.57,2.53 -2.91,2.06 -3.24,1.58 -3.41,1.02 -3.58,0.46 -3.56,-0.12 -3.54,-0.70 -3.33,-1.25 -3.13,-1.80 -2.76,-2.25 -2.39,-2.70 -1.90,-3.01 -1.40,-3.33 -0.83,-3.46 -0.26,-3.60 0.31,-3.55 0.89,-3.50 1.43,-3.26 1.96,-3.03 2.40,-2.63 2.83,-2.24 3.11,-1.73 3.40,-1.22 3.50,-0.64 3.61,-0.07 3.53,0.50 3.44,1.08 3.18,1.60 2.92,2.12 2.50,2.53 2.08,2.95 2.08,2.94 2.08,2.94 2.39,1.79 2.70,0.63 3.63,1.63 4.56,2.63 5.02,3.65 5.48,4.68 5.94,6.03 6.39,7.38 6.73,8.72 7.06,10.07 7.60,11.12 8.15,12.18 8.64,13.16 9.14,14.14 9.82,15.35 10.51,16.56 11.03,17.66 11.56,18.76 11.96,19.78 12.37,20.80 12.99,22.34 13.62,23.88 14.49,25.85 15.36,27.81 15.85,28.82 16.34,29.83 17.05,31.15 17.77,32.47 18.34,33.57 18.92,34.67 19.65,36.12 20.39,37.57 21.13,39.16 21.88,40.74 22.48,42.48 23.08,44.21 23.43,45.64 23.78,47.07 24.02,48.57 24.27,50.07 24.32,51.67 24.36,53.28 24.16,54.35 23.96,55.43 23.51,56.56 23.06,57.69 22.40,58.93 21.74,60.18 20.90,61.21 20.07,62.23 19.08,63.11 18.09,63.99 16.72,65.08 15.36,66.18 14.06,66.82 12.75,67.46 11.53,67.78 10.31,68.09 8.88,68.22 7.46,68.34 5.97,68.33 4.48,68.32 3.24,68.20 2.01,68.07 0.68,67.89 -0.65,67.71 -2.27,67.22 -3.90,66.73 -4.84,66.22 -5.78,65.71 -6.71,64.77 -7.64,63.83 -8.16,62.56 -8.67,61.29 -8.89,60.14 -9.11,58.99 -9.39,57.26 -9.68,55.53 -9.84,53.49 -10.00,51.45 -9.91,50.21 -9.83,48.97 -9.68,47.50 -9.53,46.03 -9.41,44.79 -9.28,43.54 -9.06,42.27 -8.84,41.00 -8.57,39.92 -8.29,38.84 -7.98,37.19 -7.67,35.55 -7.35,34.04 -7.03,32.53 -6.74,31.40 -6.46,30.27 -6.14,28.67 -5.82,27.06 -5.52,25.44 -5.22,23.81 -4.93,22.37 -4.64,20.93 -4.34,18.90 -4.05,16.87 -3.77,14.82 -3.50,12.78 -3.21,11.01 -2.93,9.25 -2.63,6.79 -2.34,4.34 -2.17,2.05 -2.01,-0.23 -1.95,-0.46 -1.89,-0.70 -1.78,-0.92 -1.67,-1.13 -1.51,-1.32 -1.35,-1.50 -1.15,-1.64 -0.95,-1.78 -0.72,-1.87 -0.49,-1.96 -0.25,-1.99 -0.01,-2.02 0.22,-1.99 0.47,-1.96 0.70,-1.88 0.92,-1.79 1.13,-1.66 1.33,-1.52 1.49,-1.34 1.65,-1.16 1.77,-0.94 1.88,-0.73 1.94,-0.49 2.00,-0.25 2.01,-0.01 2.01,0.23 2.01,0.23 L 2.01,0.23 Z"></path></g><g transform="translate(78.49190341670874 100.50749337497291) rotate(0 9.014048412737793 19.46296962170186)" stroke="none"><path fill="#da77f2" d="M -1.90,-1.83 Q -1.90,-1.83 -0.89,-2.86 0.11,-3.88 0.84,-4.66 1.57,-5.45 2.54,-6.47 3.51,-7.49 4.50,-8.30 5.49,-9.12 7.29,-9.92 9.09,-10.72 10.32,-11.13 11.55,-11.54 12.78,-11.86 14.00,-12.19 15.36,-12.35 16.73,-12.51 18.13,-12.57 19.54,-12.63 20.55,-13.80 21.55,-14.96 23.49,-15.00 25.43,-15.03 26.46,-13.22 27.49,-11.40 27.40,-10.03 27.30,-8.65 27.19,-7.35 27.08,-6.05 26.74,-3.71 26.40,-1.37 26.22,0.40 26.04,2.18 25.76,4.13 25.48,6.09 25.21,7.95 24.95,9.80 24.88,10.97 24.82,12.15 24.80,13.26 24.77,14.37 24.77,15.66 24.78,16.94 24.73,18.38 24.67,19.82 24.55,21.57 24.42,23.31 24.42,24.89 24.41,26.48 24.41,27.64 24.40,28.80 24.33,29.90 24.27,30.99 24.09,32.23 23.91,33.47 23.75,34.60 23.58,35.74 23.41,36.86 23.23,37.98 22.80,39.41 22.36,40.83 21.92,41.90 21.49,42.97 20.78,44.19 20.07,45.42 19.35,46.26 18.63,47.11 17.88,47.91 17.13,48.71 15.64,49.86 14.16,51.01 12.67,51.81 11.17,52.61 9.71,53.21 8.25,53.80 7.01,54.22 5.77,54.64 4.44,54.84 3.11,55.05 1.64,54.89 0.16,54.73 -1.39,54.53 -2.95,54.32 -4.53,54.04 -6.11,53.76 -6.68,53.65 -7.25,53.53 -7.75,53.24 -8.25,52.95 -8.63,52.51 -9.02,52.08 -9.24,51.54 -9.46,51.01 -9.51,50.43 -9.55,49.85 -9.40,49.29 -9.25,48.72 -8.94,48.24 -8.62,47.75 -8.16,47.39 -7.71,47.03 -7.16,46.84 -6.61,46.65 -6.03,46.64 -5.45,46.63 -4.90,46.80 -4.34,46.98 -3.88,47.32 -3.41,47.67 -3.08,48.14 -2.74,48.62 -2.58,49.17 -2.41,49.73 -2.43,50.31 -2.46,50.89 -2.66,51.43 -2.87,51.98 -3.24,52.43 -3.61,52.87 -4.10,53.18 -4.59,53.49 -5.16,53.62 -5.72,53.76 -6.30,53.70 -6.88,53.65 -7.41,53.42 -7.94,53.18 -8.37,52.79 -8.79,52.40 -9.07,51.89 -9.35,51.38 -9.46,50.81 -9.56,50.24 -9.48,49.66 -9.39,49.09 -9.13,48.57 -8.87,48.05 -8.45,47.65 -8.04,47.24 -7.51,46.99 -6.99,46.74 -6.41,46.66 -5.84,46.59 -5.84,46.59 -5.84,46.59 -3.39,46.99 -0.95,47.39 0.55,47.59 2.06,47.80 3.24,47.75 4.42,47.70 5.61,47.28 6.80,46.85 7.94,46.34 9.08,45.84 10.14,45.15 11.20,44.45 12.23,43.45 13.26,42.44 14.19,41.22 15.13,40.01 15.67,38.83 16.21,37.65 16.55,36.37 16.88,35.09 17.13,33.96 17.39,32.84 17.69,31.59 18.00,30.34 18.19,28.98 18.37,27.62 18.46,26.28 18.56,24.95 18.61,23.87 18.66,22.80 18.89,21.06 19.11,19.32 19.31,17.93 19.51,16.54 19.69,15.31 19.88,14.08 19.99,12.90 20.10,11.72 20.25,10.53 20.41,9.33 20.52,7.50 20.64,5.68 20.68,3.80 20.73,1.93 20.71,0.15 20.69,-1.62 20.56,-3.98 20.43,-6.34 21.33,-8.18 22.23,-10.01 24.59,-10.46 26.96,-10.91 26.45,-9.91 25.93,-8.91 25.07,-8.03 24.20,-7.16 22.52,-6.57 20.84,-5.99 19.42,-5.95 17.99,-5.91 16.91,-5.93 15.83,-5.95 14.55,-5.76 13.26,-5.58 12.16,-5.30 11.06,-5.01 9.62,-4.46 8.18,-3.91 7.25,-3.22 6.33,-2.52 5.10,-1.38 3.87,-0.25 2.89,0.79 1.90,1.83 1.65,2.03 1.40,2.23 1.12,2.37 0.83,2.51 0.51,2.57 0.20,2.63 -0.11,2.62 -0.43,2.61 -0.73,2.52 -1.04,2.43 -1.31,2.27 -1.59,2.11 -1.82,1.89 -2.05,1.66 -2.22,1.39 -2.39,1.12 -2.49,0.82 -2.59,0.52 -2.61,0.20 -2.64,-0.11 -2.59,-0.42 -2.53,-0.74 -2.41,-1.03 -2.28,-1.32 -2.09,-1.58 -1.90,-1.83 -1.90,-1.83 L -1.90,-1.83 Z"></path></g><g transform="translate(104.29248174006261 105.7821520679056) rotate(0 -1.8301843562389877 22.708574853546224)" stroke="none"><path fill="#da77f2" d="M -1.78,-1.96 Q -1.78,-1.96 -0.85,-2.81 0.07,-3.66 1.06,-4.43 2.05,-5.21 3.47,-6.10 4.89,-6.99 6.35,-7.59 7.82,-8.19 9.06,-8.45 10.30,-8.72 11.59,-8.78 12.88,-8.85 14.60,-8.70 16.32,-8.55 17.80,-8.48 19.28,-8.42 20.35,-8.59 21.41,-8.75 23.63,-8.30 25.84,-7.85 26.22,-6.49 26.60,-5.14 26.36,-3.88 26.12,-2.62 25.87,-1.56 25.63,-0.49 25.06,1.47 24.49,3.45 23.98,5.36 23.46,7.27 22.76,9.62 22.06,11.97 21.49,14.10 20.91,16.22 20.69,17.56 20.47,18.90 20.31,20.13 20.15,21.37 19.98,22.69 19.82,24.01 19.69,25.91 19.56,27.82 19.57,29.11 19.57,30.40 19.57,31.76 19.56,33.13 19.37,34.44 19.19,35.74 18.66,37.19 18.13,38.64 17.60,39.60 17.06,40.55 15.41,42.26 13.76,43.98 12.79,44.72 11.81,45.45 9.80,46.40 7.80,47.35 5.58,48.18 3.36,49.01 1.83,49.64 0.31,50.28 -2.13,50.91 -4.57,51.55 -6.21,51.97 -7.85,52.39 -9.67,52.88 -11.48,53.36 -12.89,53.50 -14.29,53.63 -15.67,53.77 -17.04,53.91 -18.24,53.84 -19.44,53.76 -20.80,53.46 -22.16,53.17 -23.37,52.88 -24.58,52.60 -25.82,52.19 -27.06,51.77 -27.55,51.68 -28.03,51.58 -28.46,51.33 -28.89,51.09 -29.21,50.72 -29.54,50.35 -29.73,49.89 -29.92,49.44 -29.96,48.95 -29.99,48.45 -29.87,47.98 -29.75,47.50 -29.48,47.09 -29.21,46.67 -28.82,46.37 -28.43,46.06 -27.97,45.89 -27.50,45.73 -27.01,45.72 -26.52,45.71 -26.05,45.86 -25.58,46.01 -25.18,46.30 -24.78,46.59 -24.50,46.99 -24.21,47.40 -24.07,47.87 -23.93,48.34 -23.95,48.84 -23.97,49.33 -24.14,49.79 -24.31,50.25 -24.63,50.63 -24.94,51.01 -25.36,51.28 -25.77,51.54 -26.25,51.65 -26.73,51.77 -27.23,51.72 -27.72,51.68 -28.17,51.48 -28.62,51.28 -28.98,50.95 -29.35,50.62 -29.59,50.19 -29.83,49.75 -29.91,49.27 -30.00,48.78 -29.93,48.30 -29.86,47.81 -29.64,47.37 -29.42,46.93 -29.06,46.58 -28.71,46.24 -28.27,46.02 -27.82,45.81 -27.34,45.74 -26.85,45.68 -26.85,45.68 -26.85,45.68 -24.45,46.37 -22.05,47.06 -20.76,47.52 -19.47,47.98 -18.25,48.34 -17.04,48.69 -15.85,48.75 -14.66,48.80 -13.43,48.74 -12.20,48.67 -10.54,48.49 -8.88,48.31 -7.36,47.93 -5.83,47.56 -3.69,46.74 -1.55,45.93 -0.11,45.28 1.33,44.63 3.19,43.57 5.06,42.51 7.28,40.89 9.51,39.27 10.59,38.15 11.66,37.03 12.36,35.95 13.05,34.86 13.46,33.66 13.87,32.46 14.04,31.30 14.22,30.14 14.40,28.71 14.59,27.29 14.94,25.31 15.29,23.34 15.53,21.98 15.76,20.62 16.04,19.33 16.31,18.04 16.64,16.72 16.96,15.40 17.30,13.18 17.63,10.97 17.99,8.63 18.35,6.29 18.58,4.37 18.80,2.45 18.95,0.33 19.09,-1.79 19.86,-2.88 20.63,-3.97 22.36,-3.33 24.08,-2.69 22.98,-2.42 21.88,-2.16 20.55,-2.10 19.21,-2.03 17.38,-2.14 15.54,-2.25 13.77,-2.44 12.00,-2.63 10.78,-2.59 9.56,-2.54 8.09,-2.07 6.61,-1.59 5.13,-0.65 3.65,0.29 2.71,1.13 1.78,1.96 1.52,2.15 1.25,2.33 0.96,2.45 0.66,2.57 0.34,2.61 0.02,2.65 -0.28,2.62 -0.60,2.58 -0.90,2.47 -1.20,2.36 -1.47,2.18 -1.74,2.00 -1.95,1.76 -2.17,1.53 -2.32,1.25 -2.47,0.96 -2.55,0.65 -2.63,0.34 -2.63,0.02 -2.64,-0.29 -2.56,-0.60 -2.49,-0.91 -2.34,-1.20 -2.20,-1.48 -1.99,-1.72 -1.78,-1.96 -1.78,-1.96 L -1.78,-1.96 Z"></path></g><g transform="translate(61.30260128906684 100.50733848243976) rotate(0 -12.819835398418036 18.313738018164713)" stroke="none"><path fill="#da77f2" d="M -1.96,1.69 Q -1.96,1.69 -2.96,0.48 -3.96,-0.72 -5.03,-1.83 -6.10,-2.93 -6.98,-3.71 -7.86,-4.49 -8.84,-4.99 -9.82,-5.49 -11.33,-5.55 -12.83,-5.60 -13.92,-5.65 -15.02,-5.69 -16.58,-5.82 -18.15,-5.94 -19.59,-6.31 -21.03,-6.69 -22.51,-7.50 -23.99,-8.32 -25.01,-9.14 -26.02,-9.96 -26.64,-10.34 -27.27,-10.73 -27.62,-10.98 -27.97,-11.23 -28.26,-11.56 -28.54,-11.89 -28.73,-12.28 -28.93,-12.66 -29.03,-13.09 -29.13,-13.51 -29.12,-13.94 -29.11,-14.37 -29.00,-14.79 -28.89,-15.21 -28.69,-15.59 -28.48,-15.98 -28.19,-16.30 -27.90,-16.62 -27.54,-16.86 -27.18,-17.10 -26.77,-17.25 -26.36,-17.40 -25.93,-17.44 -25.50,-17.49 -25.07,-17.43 -24.64,-17.37 -24.24,-17.21 -23.83,-17.05 -22.99,-16.20 -22.15,-15.34 -21.66,-14.38 -21.16,-13.42 -20.57,-11.38 -19.97,-9.34 -19.48,-7.48 -18.99,-5.63 -18.71,-4.08 -18.43,-2.52 -18.19,-1.42 -17.95,-0.33 -17.64,0.92 -17.34,2.18 -16.94,3.45 -16.54,4.72 -15.82,6.83 -15.10,8.94 -14.78,10.05 -14.46,11.17 -14.14,12.79 -13.82,14.41 -13.74,15.86 -13.66,17.30 -13.75,18.83 -13.85,20.36 -13.97,22.23 -14.09,24.10 -14.21,25.50 -14.33,26.89 -14.50,28.05 -14.67,29.21 -14.87,30.30 -15.08,31.38 -15.21,32.77 -15.35,34.17 -15.37,35.29 -15.39,36.41 -15.21,37.71 -15.03,39.01 -14.77,40.29 -14.50,41.56 -13.94,42.72 -13.37,43.88 -12.63,44.68 -11.89,45.48 -10.90,45.94 -9.91,46.40 -8.84,46.57 -7.77,46.75 -6.50,46.78 -5.23,46.81 -2.83,46.75 -0.43,46.68 0.16,46.74 0.77,46.79 1.32,47.04 1.87,47.28 2.32,47.69 2.77,48.10 3.06,48.63 3.35,49.16 3.46,49.75 3.57,50.35 3.48,50.95 3.39,51.55 3.12,52.09 2.85,52.63 2.41,53.05 1.98,53.47 1.44,53.74 0.89,54.00 0.29,54.08 -0.30,54.15 -0.89,54.03 -1.49,53.91 -2.01,53.61 -2.53,53.31 -2.93,52.85 -3.33,52.40 -3.57,51.84 -3.80,51.28 -3.84,50.68 -3.89,50.07 -3.74,49.49 -3.58,48.90 -3.25,48.40 -2.92,47.89 -2.45,47.51 -1.97,47.14 -1.40,46.94 -0.83,46.73 -0.23,46.72 0.37,46.71 0.95,46.90 1.52,47.08 2.01,47.44 2.50,47.80 2.85,48.29 3.20,48.79 3.37,49.37 3.54,49.95 3.52,50.55 3.50,51.16 3.28,51.72 3.07,52.29 2.68,52.76 2.30,53.22 1.79,53.55 1.27,53.87 0.68,54.01 0.09,54.15 0.10,54.15 0.10,54.15 -2.00,54.21 -4.11,54.27 -5.38,54.26 -6.65,54.24 -7.76,54.16 -8.87,54.08 -10.17,53.83 -11.47,53.59 -12.65,53.16 -13.83,52.73 -14.95,52.09 -16.06,51.45 -17.02,50.63 -17.98,49.80 -18.65,48.86 -19.33,47.92 -19.87,46.85 -20.42,45.78 -20.91,44.56 -21.39,43.33 -21.64,42.02 -21.89,40.70 -22.03,39.53 -22.16,38.36 -22.22,36.88 -22.28,35.39 -22.11,33.81 -21.95,32.23 -21.77,31.10 -21.59,29.98 -21.27,28.60 -20.95,27.22 -20.77,26.06 -20.59,24.89 -20.45,23.22 -20.31,21.54 -20.21,20.13 -20.10,18.72 -20.00,17.55 -19.89,16.38 -19.94,15.20 -19.99,14.02 -20.37,12.43 -20.76,10.84 -21.47,8.79 -22.19,6.75 -22.76,5.30 -23.34,3.86 -23.76,2.52 -24.18,1.19 -24.48,0.09 -24.77,-1.00 -25.20,-2.41 -25.63,-3.81 -26.19,-5.60 -26.74,-7.38 -27.00,-9.06 -27.27,-10.73 -27.62,-10.98 -27.97,-11.23 -28.25,-11.56 -28.54,-11.89 -28.73,-12.28 -28.93,-12.66 -29.03,-13.08 -29.13,-13.51 -29.12,-13.94 -29.11,-14.37 -29.00,-14.79 -28.89,-15.21 -28.69,-15.59 -28.48,-15.98 -28.19,-16.30 -27.90,-16.62 -27.54,-16.86 -27.18,-17.10 -26.77,-17.25 -26.36,-17.40 -25.93,-17.44 -25.50,-17.49 -25.07,-17.43 -24.64,-17.37 -24.24,-17.21 -23.83,-17.05 -23.37,-16.82 -22.90,-16.60 -21.90,-15.70 -20.91,-14.81 -19.81,-13.98 -18.72,-13.15 -17.51,-12.79 -16.30,-12.43 -14.87,-12.32 -13.44,-12.22 -11.95,-12.06 -10.45,-11.90 -9.34,-11.68 -8.23,-11.47 -7.08,-10.92 -5.94,-10.37 -4.91,-9.46 -3.89,-8.55 -2.99,-7.54 -2.08,-6.52 -1.10,-5.27 -0.12,-4.02 0.91,-2.86 1.96,-1.69 2.14,-1.43 2.31,-1.17 2.42,-0.87 2.53,-0.58 2.56,-0.27 2.59,0.03 2.55,0.34 2.51,0.65 2.39,0.94 2.28,1.23 2.10,1.49 1.91,1.74 1.68,1.95 1.44,2.15 1.16,2.29 0.88,2.44 0.58,2.51 0.27,2.58 -0.03,2.57 -0.35,2.57 -0.65,2.49 -0.95,2.41 -1.23,2.26 -1.50,2.11 -1.73,1.90 -1.96,1.69 -1.96,1.69 L -1.96,1.69 Z"></path></g><g transform="translate(38.75742515027923 101.68676767608531) rotate(0 -1.4443986870151093 25.674224739439182)" stroke="none"><path fill="#da77f2" d="M -1.12,2.41 Q -1.12,2.41 -2.23,1.90 -3.34,1.39 -4.72,0.96 -6.09,0.52 -7.29,0.37 -8.48,0.22 -9.58,0.26 -10.69,0.30 -12.16,0.44 -13.64,0.57 -14.73,0.70 -15.82,0.84 -17.15,1.14 -18.49,1.43 -20.46,1.64 -22.43,1.84 -23.52,1.77 -24.61,1.70 -26.28,1.23 -27.95,0.75 -29.02,0.10 -30.10,-0.54 -29.93,-0.41 -29.76,-0.28 -30.13,-0.46 -30.50,-0.64 -30.81,-0.90 -31.13,-1.16 -31.37,-1.49 -31.61,-1.82 -31.77,-2.20 -31.93,-2.58 -31.99,-2.98 -32.05,-3.38 -32.02,-3.79 -31.98,-4.20 -31.85,-4.58 -31.72,-4.97 -31.50,-5.31 -31.27,-5.66 -30.98,-5.94 -30.68,-6.22 -30.32,-6.42 -29.97,-6.62 -29.58,-6.73 -29.18,-6.84 -28.77,-6.86 -28.36,-6.87 -27.96,-6.79 -27.56,-6.70 -26.47,-6.15 -25.38,-5.60 -24.27,-4.70 -23.16,-3.81 -22.10,-2.68 -21.04,-1.54 -20.26,-0.72 -19.48,0.09 -18.60,1.17 -17.72,2.26 -16.90,3.46 -16.07,4.66 -15.48,5.58 -14.88,6.49 -14.24,7.76 -13.59,9.03 -13.11,10.09 -12.63,11.14 -11.90,13.93 -11.17,16.71 -10.87,17.90 -10.57,19.08 -10.23,20.72 -9.90,22.36 -9.82,24.27 -9.75,26.18 -9.78,27.33 -9.80,28.48 -10.15,31.40 -10.50,34.31 -10.61,36.77 -10.72,39.23 -10.37,42.36 -10.02,45.49 -9.80,46.93 -9.57,48.36 -8.72,49.29 -7.86,50.21 -6.70,50.61 -5.55,51.00 -4.28,51.28 -3.01,51.55 -1.92,51.57 -0.82,51.59 0.27,51.55 1.38,51.50 2.59,51.45 3.80,51.40 4.99,51.27 6.18,51.14 7.48,50.87 8.79,50.60 10.16,50.38 11.54,50.16 12.81,49.95 14.08,49.74 15.43,49.60 16.79,49.46 18.12,49.33 19.44,49.20 20.94,48.98 22.44,48.76 23.64,48.51 24.84,48.26 25.37,48.18 25.90,48.10 26.43,48.19 26.96,48.29 27.44,48.54 27.91,48.80 28.27,49.20 28.64,49.59 28.86,50.08 29.08,50.57 29.13,51.11 29.18,51.65 29.06,52.17 28.94,52.69 28.66,53.15 28.37,53.61 27.96,53.95 27.54,54.30 27.04,54.49 26.54,54.68 26.00,54.70 25.46,54.73 24.95,54.58 24.43,54.43 23.99,54.12 23.55,53.81 23.23,53.38 22.91,52.95 22.74,52.44 22.58,51.92 22.58,51.39 22.59,50.85 22.77,50.34 22.94,49.83 23.28,49.41 23.61,48.98 24.05,48.69 24.50,48.39 25.02,48.25 25.54,48.12 26.08,48.15 26.62,48.19 27.12,48.39 27.61,48.60 28.02,48.95 28.42,49.30 28.70,49.77 28.97,50.23 29.08,50.76 29.19,51.29 29.12,51.82 29.06,52.35 28.83,52.84 28.59,53.33 28.22,53.71 27.84,54.10 27.37,54.34 26.89,54.59 26.89,54.59 26.89,54.59 25.10,54.96 23.30,55.33 21.84,55.53 20.38,55.73 19.10,55.97 17.81,56.22 16.55,56.48 15.28,56.74 13.98,56.97 12.68,57.19 10.84,57.52 9.01,57.84 7.73,58.04 6.46,58.24 5.38,58.29 4.30,58.34 3.13,58.29 1.96,58.24 0.80,58.19 -0.34,58.13 -1.41,58.03 -2.47,57.93 -3.99,57.63 -5.50,57.33 -6.53,56.94 -7.57,56.56 -9.11,55.80 -10.64,55.04 -11.50,54.28 -12.35,53.52 -13.06,52.48 -13.78,51.44 -13.97,50.24 -14.17,49.03 -14.36,47.62 -14.55,46.21 -15.26,42.72 -15.97,39.23 -15.91,36.54 -15.84,33.86 -15.76,31.11 -15.68,28.36 -15.66,27.24 -15.64,26.13 -15.61,24.62 -15.58,23.11 -15.74,21.75 -15.89,20.39 -16.15,19.29 -16.41,18.20 -17.06,16.49 -17.70,14.79 -18.32,13.31 -18.93,11.83 -19.99,10.05 -21.05,8.26 -21.79,7.32 -22.52,6.37 -24.06,4.77 -25.60,3.17 -26.63,2.28 -27.66,1.40 -28.71,0.55 -29.76,-0.28 -30.13,-0.46 -30.50,-0.64 -30.81,-0.90 -31.13,-1.16 -31.37,-1.49 -31.61,-1.82 -31.77,-2.20 -31.93,-2.57 -31.99,-2.98 -32.05,-3.38 -32.02,-3.79 -31.98,-4.20 -31.85,-4.58 -31.72,-4.97 -31.50,-5.31 -31.27,-5.66 -30.98,-5.94 -30.68,-6.22 -30.32,-6.42 -29.97,-6.62 -29.58,-6.73 -29.18,-6.84 -28.77,-6.86 -28.36,-6.87 -27.96,-6.79 -27.57,-6.70 -26.88,-6.36 -26.19,-6.01 -25.15,-5.39 -24.12,-4.77 -22.55,-4.77 -20.98,-4.77 -19.93,-4.98 -18.87,-5.19 -17.21,-5.38 -15.55,-5.58 -14.02,-5.67 -12.48,-5.77 -10.97,-5.80 -9.46,-5.83 -8.02,-5.67 -6.58,-5.51 -5.44,-5.17 -4.31,-4.83 -2.69,-4.14 -1.08,-3.46 0.02,-2.93 1.12,-2.41 1.39,-2.24 1.66,-2.07 1.89,-1.84 2.11,-1.61 2.27,-1.33 2.44,-1.06 2.53,-0.75 2.62,-0.44 2.64,-0.12 2.65,0.19 2.59,0.51 2.53,0.82 2.39,1.11 2.25,1.40 2.05,1.65 1.85,1.90 1.60,2.10 1.34,2.29 1.05,2.42 0.75,2.55 0.44,2.60 0.12,2.65 -0.19,2.63 -0.51,2.61 -0.82,2.51 -1.12,2.41 -1.12,2.41 L -1.12,2.41 Z"></path></g><g transform="translate(75.15857242064885 198.81203516403116) rotate(0 0.9632451322854649 -22.273264740217428)" stroke="none"><path fill="#2f9e44" d="M -2.16,1.52 Q -2.16,1.52 -3.01,0.27 -3.86,-0.97 -4.89,-2.29 -5.92,-3.61 -6.75,-4.80 -7.58,-5.99 -8.41,-7.45 -9.23,-8.91 -9.84,-10.26 -10.46,-11.61 -10.90,-13.01 -11.35,-14.41 -11.67,-15.89 -12.00,-17.36 -12.36,-18.79 -12.71,-20.21 -12.98,-21.64 -13.24,-23.08 -13.51,-24.35 -13.78,-25.63 -13.94,-27.14 -14.11,-28.64 -14.23,-30.01 -14.35,-31.37 -14.44,-32.71 -14.53,-34.05 -14.42,-35.11 -14.31,-36.18 -14.00,-37.43 -13.68,-38.69 -13.34,-39.73 -13.00,-40.78 -12.42,-41.81 -11.84,-42.84 -10.90,-43.84 -9.96,-44.83 -8.75,-45.65 -7.55,-46.47 -6.43,-47.07 -5.30,-47.66 -3.72,-48.01 -2.13,-48.36 -0.86,-48.39 0.41,-48.43 1.68,-48.42 2.95,-48.41 4.35,-48.23 5.76,-48.06 6.86,-47.77 7.95,-47.47 8.99,-46.93 10.02,-46.38 10.88,-45.65 11.74,-44.92 12.53,-44.05 13.32,-43.17 14.05,-42.04 14.79,-40.92 15.33,-39.62 15.88,-38.33 16.17,-37.04 16.47,-35.74 16.57,-34.55 16.67,-33.36 16.64,-32.25 16.61,-31.15 16.44,-30.03 16.28,-28.90 15.94,-27.36 15.59,-25.83 15.26,-24.75 14.93,-23.67 14.38,-22.22 13.84,-20.78 13.21,-19.47 12.59,-18.17 12.01,-17.25 11.44,-16.33 10.76,-15.34 10.07,-14.34 9.31,-13.19 8.54,-12.04 7.83,-10.88 7.12,-9.72 6.47,-8.66 5.82,-7.60 5.22,-6.38 4.62,-5.15 4.48,-3.92 4.33,-2.68 4.04,-1.33 3.76,0.01 3.70,0.46 3.64,0.91 3.48,1.33 3.32,1.76 3.06,2.13 2.80,2.50 2.46,2.80 2.12,3.10 1.72,3.31 1.31,3.52 0.87,3.62 0.43,3.73 -0.01,3.73 -0.46,3.73 -0.90,3.62 -1.34,3.51 -1.74,3.29 -2.14,3.08 -2.48,2.78 -2.82,2.48 -3.08,2.10 -3.33,1.73 -3.49,1.30 -3.65,0.88 -3.70,0.43 -3.76,-0.01 -2.76,1.64 -1.77,3.31 -2.26,2.94 -2.74,2.57 -3.08,2.06 -3.42,1.56 -3.58,0.97 -3.74,0.38 -3.70,-0.21 -3.66,-0.82 -3.44,-1.39 -3.21,-1.95 -2.81,-2.41 -2.42,-2.87 -1.89,-3.18 -1.37,-3.50 -0.78,-3.62 -0.18,-3.75 0.41,-3.68 1.02,-3.61 1.57,-3.36 2.12,-3.10 2.56,-2.68 3.00,-2.26 3.28,-1.72 3.56,-1.18 3.66,-0.58 3.76,0.01 3.65,0.61 3.55,1.21 3.27,1.75 2.98,2.29 2.53,2.70 2.09,3.12 1.54,3.37 0.98,3.62 0.38,3.69 -0.22,3.75 -0.81,3.62 -1.40,3.48 -1.92,3.17 -2.44,2.85 -2.84,2.38 -3.23,1.92 -3.45,1.35 -3.67,0.78 -3.70,0.18 -3.73,-0.42 -3.57,-1.01 -3.40,-1.59 -3.06,-2.09 -2.71,-2.59 -2.23,-2.96 -1.74,-3.33 -1.16,-3.52 -0.58,-3.71 0.01,-3.71 0.62,-3.70 2.19,-1.84 3.76,0.01 3.70,0.46 3.64,0.91 3.48,1.33 3.32,1.76 3.06,2.13 2.80,2.50 2.46,2.80 2.12,3.10 1.72,3.31 1.31,3.52 0.87,3.62 0.43,3.73 -0.01,3.73 -0.46,3.73 -0.90,3.62 -1.34,3.51 -1.74,3.29 -2.14,3.08 -2.48,2.78 -2.82,2.48 -3.08,2.10 -3.33,1.73 -3.49,1.30 -3.65,0.88 -3.70,0.43 -3.76,-0.01 -3.47,-1.02 -3.19,-2.03 -3.15,-3.21 -3.12,-4.39 -2.86,-5.66 -2.60,-6.93 -2.08,-8.29 -1.57,-9.65 -0.77,-10.93 0.03,-12.21 0.73,-13.36 1.43,-14.50 2.13,-15.64 2.83,-16.78 3.49,-17.70 4.14,-18.63 4.77,-19.50 5.39,-20.38 6.00,-21.39 6.62,-22.40 7.05,-23.57 7.49,-24.75 7.85,-25.82 8.20,-26.89 8.49,-28.06 8.78,-29.23 8.98,-30.40 9.19,-31.57 9.20,-32.67 9.21,-33.77 8.89,-35.14 8.58,-36.52 7.88,-37.70 7.17,-38.88 6.34,-39.68 5.51,-40.47 4.47,-40.73 3.43,-40.98 2.26,-41.03 1.10,-41.09 -0.23,-41.08 -1.56,-41.07 -2.66,-40.71 -3.75,-40.34 -4.78,-39.61 -5.81,-38.88 -6.37,-37.71 -6.93,-36.53 -7.25,-35.37 -7.58,-34.21 -7.55,-33.10 -7.52,-31.98 -7.40,-30.64 -7.29,-29.29 -7.17,-28.05 -7.05,-26.82 -6.81,-25.40 -6.58,-23.98 -6.45,-22.83 -6.31,-21.69 -6.02,-20.13 -5.73,-18.57 -5.50,-17.27 -5.27,-15.98 -4.99,-14.87 -4.71,-13.76 -4.33,-12.70 -3.95,-11.64 -3.28,-10.28 -2.61,-8.92 -2.01,-7.83 -1.40,-6.75 -0.51,-5.35 0.37,-3.96 1.27,-2.74 2.16,-1.52 2.31,-1.24 2.46,-0.96 2.54,-0.65 2.62,-0.34 2.63,-0.02 2.63,0.29 2.56,0.60 2.48,0.91 2.34,1.19 2.19,1.48 1.98,1.72 1.77,1.96 1.51,2.15 1.25,2.33 0.95,2.45 0.66,2.56 0.34,2.60 0.02,2.65 -0.29,2.61 -0.60,2.58 -0.90,2.47 -1.20,2.36 -1.47,2.18 -1.73,2.00 -1.95,1.76 -2.16,1.52 -2.16,1.52 L -2.16,1.52 Z"></path></g><g transform="translate(28.066851964343186 170.59476933130532) rotate(0 19.291787363545154 -0.02895879357117792)" stroke="none"><path fill="#2f9e44" d="M -2.05,-1.66 Q -2.05,-1.66 -1.39,-2.52 -0.72,-3.38 0.12,-4.43 0.97,-5.49 2.03,-6.60 3.08,-7.71 4.31,-8.65 5.54,-9.59 6.68,-10.28 7.82,-10.97 8.98,-11.56 10.15,-12.15 11.57,-12.70 12.99,-13.24 14.38,-13.60 15.77,-13.95 16.85,-14.11 17.93,-14.27 19.45,-14.48 20.97,-14.69 22.27,-14.74 23.57,-14.79 24.96,-14.82 26.34,-14.84 27.68,-14.88 29.03,-14.92 30.34,-14.97 31.65,-15.01 32.82,-15.08 33.98,-15.16 35.15,-15.49 36.31,-15.82 37.46,-16.16 38.61,-16.49 40.01,-16.28 41.42,-16.06 42.49,-14.95 43.57,-13.84 43.99,-12.41 44.41,-10.98 44.20,-9.17 43.99,-7.35 43.30,-5.33 42.61,-3.31 42.16,-2.16 41.71,-1.02 41.15,0.04 40.58,1.10 39.89,2.24 39.20,3.38 38.54,4.40 37.88,5.42 37.05,6.55 36.21,7.67 35.11,8.81 34.02,9.96 33.11,10.68 32.20,11.40 31.08,12.07 29.97,12.74 28.88,13.24 27.79,13.73 26.11,14.14 24.42,14.55 23.00,14.88 21.58,15.20 19.95,15.55 18.32,15.90 16.17,15.94 14.02,15.99 12.23,15.90 10.44,15.82 9.09,15.65 7.73,15.48 6.40,15.11 5.07,14.74 3.65,14.16 2.23,13.59 1.22,13.05 0.21,12.52 -0.78,12.01 -1.78,11.50 -2.66,10.84 -3.54,10.18 -4.49,9.38 -5.45,8.58 -5.62,7.24 -5.80,5.89 -5.39,4.39 -4.98,2.89 -4.57,1.90 -4.16,0.91 -3.47,-0.22 -2.78,-1.36 -2.00,-2.15 -1.22,-2.94 -1.66,-2.91 -2.10,-2.88 -1.72,-3.09 -1.35,-3.30 -0.93,-3.42 -0.51,-3.53 -0.08,-3.54 0.34,-3.55 0.76,-3.46 1.18,-3.37 1.56,-3.18 1.95,-2.99 2.28,-2.71 2.61,-2.43 2.86,-2.08 3.12,-1.73 3.28,-1.34 3.44,-0.94 3.50,-0.51 3.57,-0.08 3.53,0.33 3.48,0.76 3.34,1.17 3.20,1.58 2.96,1.94 2.73,2.30 2.41,2.59 2.10,2.88 1.12,3.23 0.14,3.57 -0.42,3.50 -0.99,3.43 -1.52,3.18 -2.04,2.93 -2.45,2.52 -2.87,2.12 -3.13,1.61 -3.40,1.09 -3.48,0.52 -3.57,-0.04 -3.47,-0.61 -3.37,-1.18 -3.09,-1.69 -2.81,-2.19 -2.39,-2.59 -1.96,-2.98 -1.44,-3.21 -0.91,-3.45 -0.33,-3.51 0.23,-3.56 0.80,-3.43 1.36,-3.30 1.85,-2.99 2.34,-2.69 2.71,-2.24 3.08,-1.80 3.29,-1.26 3.49,-0.72 3.52,-0.14 3.54,0.43 3.38,0.98 3.22,1.54 2.89,2.01 2.56,2.49 2.09,2.83 1.63,3.17 1.08,3.35 0.53,3.53 -0.04,3.52 -0.62,3.51 -1.16,3.32 -1.71,3.13 -2.16,2.77 -2.62,2.42 -2.94,1.94 -3.26,1.45 -3.40,0.89 -3.55,0.34 -3.51,-0.23 -3.47,-0.81 -3.25,-1.34 -3.03,-1.88 -2.65,-2.31 -2.27,-2.75 -1.77,-3.04 -1.27,-3.33 -1.69,-3.11 -2.10,-2.88 -1.72,-3.09 -1.35,-3.30 -0.93,-3.42 -0.51,-3.53 -0.08,-3.54 0.34,-3.55 0.76,-3.46 1.18,-3.37 1.56,-3.18 1.95,-2.99 2.28,-2.71 2.61,-2.43 2.86,-2.08 3.12,-1.73 3.28,-1.34 3.44,-0.94 3.50,-0.51 3.57,-0.08 3.53,0.33 3.49,0.76 3.34,1.17 3.20,1.58 2.96,1.94 2.73,2.30 2.41,2.59 2.10,2.88 2.43,3.19 2.77,3.49 1.92,4.45 1.07,5.41 0.10,4.53 -0.87,3.65 0.48,4.53 1.84,5.40 2.80,5.98 3.76,6.55 4.79,7.17 5.83,7.79 6.96,8.26 8.09,8.72 9.47,9.01 10.85,9.30 12.46,9.38 14.06,9.46 15.62,9.43 17.18,9.41 18.49,9.15 19.80,8.89 21.11,8.44 22.42,7.99 24.44,7.17 26.46,6.35 27.51,5.68 28.56,5.01 29.37,4.27 30.17,3.53 31.03,2.44 31.89,1.36 32.49,0.47 33.10,-0.42 33.75,-1.46 34.41,-2.50 34.93,-3.49 35.45,-4.47 35.97,-6.04 36.48,-7.61 36.90,-8.78 37.32,-9.96 38.57,-9.62 39.83,-9.27 38.71,-8.94 37.58,-8.61 36.21,-8.29 34.84,-7.97 33.64,-7.91 32.44,-7.85 31.31,-7.84 30.18,-7.82 28.69,-7.80 27.20,-7.79 25.97,-7.80 24.73,-7.82 23.24,-7.80 21.76,-7.79 20.24,-7.61 18.72,-7.44 17.20,-7.24 15.68,-7.03 14.57,-6.73 13.45,-6.43 12.17,-5.90 10.88,-5.36 9.93,-4.86 8.97,-4.36 7.94,-3.73 6.92,-3.10 6.03,-2.38 5.14,-1.66 4.30,-0.82 3.45,0.00 2.75,0.83 2.05,1.66 1.82,1.88 1.59,2.10 1.32,2.26 1.04,2.42 0.74,2.51 0.43,2.60 0.11,2.62 -0.20,2.63 -0.51,2.57 -0.82,2.51 -1.11,2.37 -1.40,2.24 -1.65,2.04 -1.89,1.83 -2.09,1.58 -2.28,1.33 -2.41,1.03 -2.53,0.74 -2.58,0.43 -2.64,0.11 -2.61,-0.20 -2.59,-0.51 -2.49,-0.82 -2.39,-1.12 -2.22,-1.39 -2.05,-1.66 -2.05,-1.66 L -2.05,-1.66 Z"></path></g><g transform="translate(79.9046838859349 157.84945641156582) rotate(0 23.43419929438278 5.731114826255521)" stroke="none"><path fill="#2f9e44" d="M -0.98,-2.25 Q -0.98,-2.25 0.46,-2.86 1.90,-3.47 3.11,-3.94 4.31,-4.42 6.49,-4.95 8.66,-5.48 10.19,-5.56 11.72,-5.64 12.95,-5.66 14.19,-5.68 15.96,-5.49 17.73,-5.30 19.14,-5.14 20.56,-4.99 22.11,-4.86 23.67,-4.74 24.97,-4.60 26.28,-4.45 28.10,-4.15 29.93,-3.85 31.57,-3.48 33.21,-3.12 34.38,-2.81 35.55,-2.51 36.85,-2.05 38.16,-1.58 39.38,-1.11 40.59,-0.64 41.92,-0.12 43.24,0.38 44.37,0.78 45.50,1.17 46.77,1.62 48.03,2.07 49.13,3.46 50.24,4.84 50.00,6.06 49.75,7.27 48.59,8.41 47.43,9.54 46.49,10.33 45.54,11.12 44.77,11.86 44.00,12.59 42.98,13.40 41.95,14.21 40.94,14.88 39.93,15.54 38.31,16.22 36.69,16.89 35.58,17.27 34.47,17.65 32.90,17.90 31.32,18.14 29.92,18.20 28.52,18.26 27.45,18.27 26.38,18.29 25.13,18.29 23.88,18.29 22.82,18.25 21.75,18.20 20.53,18.04 19.30,17.89 18.16,17.58 17.02,17.27 16.01,16.83 15.01,16.40 13.55,15.69 12.09,14.99 10.71,14.20 9.33,13.42 8.38,12.74 7.43,12.06 6.31,11.23 5.18,10.41 4.07,9.56 2.97,8.71 2.04,7.92 1.11,7.13 0.22,6.13 -0.65,5.13 -2.11,3.07 -3.57,1.01 -3.64,0.41 -3.71,-0.18 -3.58,-0.77 -3.46,-1.35 -3.15,-1.87 -2.84,-2.39 -2.38,-2.78 -1.93,-3.17 -1.37,-3.40 -0.81,-3.62 -0.21,-3.66 0.38,-3.69 0.96,-3.54 1.54,-3.38 2.04,-3.04 2.54,-2.71 2.91,-2.23 3.27,-1.75 3.47,-1.18 3.66,-0.61 3.66,-0.01 3.67,0.58 3.48,1.15 3.29,1.72 2.93,2.20 2.57,2.68 2.07,3.02 1.57,3.36 0.99,3.53 0.41,3.69 -0.18,3.66 -0.78,3.63 -1.34,3.41 -1.90,3.19 -2.36,2.80 -2.82,2.42 -3.13,1.90 -3.44,1.39 -3.58,0.80 -3.71,0.21 -3.65,-0.37 -3.58,-0.97 -3.33,-1.52 -3.08,-2.07 -2.67,-2.51 -2.26,-2.94 -1.73,-3.23 -1.20,-3.51 -0.61,-3.61 -0.01,-3.71 0.57,-3.62 1.17,-3.52 1.70,-3.25 2.23,-2.97 2.65,-2.53 3.06,-2.10 3.32,-1.55 3.57,-1.01 3.57,-1.01 3.57,-1.01 4.30,-0.35 5.03,0.30 5.95,1.29 6.87,2.27 7.76,3.06 8.65,3.84 9.80,4.66 10.95,5.49 12.05,6.30 13.15,7.11 14.36,7.78 15.56,8.46 16.79,9.04 18.03,9.62 19.26,10.11 20.49,10.59 21.68,10.74 22.87,10.90 24.18,10.91 25.49,10.93 26.58,10.94 27.67,10.94 28.74,10.93 29.82,10.92 31.24,10.77 32.67,10.62 33.99,10.16 35.31,9.70 36.58,8.99 37.86,8.28 38.77,7.57 39.69,6.86 40.61,6.06 41.54,5.25 42.76,4.33 43.99,3.41 43.72,4.60 43.46,5.80 44.54,7.13 45.62,8.47 44.39,7.95 43.17,7.42 42.00,6.93 40.84,6.44 39.48,5.87 38.13,5.30 36.93,4.79 35.74,4.27 34.73,3.84 33.71,3.41 32.70,3.06 31.70,2.71 30.22,2.30 28.75,1.88 27.04,1.52 25.33,1.17 24.12,0.89 22.91,0.61 21.45,0.32 20.00,0.04 18.66,-0.10 17.33,-0.25 15.76,-0.32 14.19,-0.39 13.09,-0.41 11.99,-0.44 10.72,-0.37 9.45,-0.30 7.73,-0.03 6.01,0.23 4.92,0.60 3.83,0.96 2.41,1.61 0.98,2.25 0.69,2.34 0.41,2.42 0.11,2.43 -0.17,2.45 -0.46,2.39 -0.76,2.33 -1.02,2.21 -1.29,2.08 -1.52,1.90 -1.76,1.71 -1.94,1.48 -2.12,1.24 -2.23,0.97 -2.35,0.70 -2.40,0.41 -2.45,0.11 -2.43,-0.17 -2.41,-0.47 -2.32,-0.75 -2.23,-1.03 -2.07,-1.28 -1.91,-1.54 -1.70,-1.74 -1.49,-1.95 -1.23,-2.10 -0.98,-2.25 -0.98,-2.25 L -0.98,-2.25 Z"></path></g><g transform="translate(83.91548432462605 48.89762381476544) rotate(0 26.36814624649014 13.653840195993894)" stroke="none"><path fill="#6741d9" d="M 1.87,-1.56 Q 1.87,-1.56 3.06,0.01 4.24,1.59 5.12,2.60 6.00,3.60 7.02,4.82 8.04,6.03 8.83,6.91 9.63,7.79 10.58,8.94 11.53,10.09 12.25,10.94 12.98,11.79 13.78,12.82 14.58,13.85 15.27,14.70 15.96,15.55 17.00,16.73 18.04,17.91 18.97,18.85 19.91,19.79 21.49,21.04 23.07,22.29 24.89,23.49 26.71,24.68 28.18,25.45 29.65,26.21 31.16,26.84 32.67,27.47 33.74,27.86 34.80,28.24 36.29,28.74 37.77,29.24 39.11,29.71 40.46,30.19 41.74,30.64 43.03,31.08 44.12,31.44 45.22,31.80 46.30,31.56 47.37,31.32 48.02,30.19 48.67,29.07 48.86,27.80 49.05,26.54 48.87,25.24 48.70,23.94 48.24,22.60 47.77,21.25 47.22,20.11 46.66,18.97 46.06,17.94 45.46,16.91 44.56,15.72 43.66,14.52 42.85,13.66 42.03,12.79 40.82,11.50 39.60,10.20 37.75,8.45 35.89,6.69 34.70,5.69 33.51,4.68 32.63,4.05 31.74,3.43 30.77,2.78 29.80,2.13 28.47,1.38 27.14,0.64 25.88,0.06 24.62,-0.50 23.49,-0.95 22.37,-1.39 21.20,-1.79 20.04,-2.19 18.73,-2.56 17.43,-2.93 16.22,-2.95 15.00,-2.97 13.85,-3.18 12.69,-3.38 11.40,-3.62 10.12,-3.85 9.05,-4.02 7.98,-4.19 6.80,-4.18 5.63,-4.17 4.46,-4.11 3.30,-4.05 4.14,-4.82 4.98,-5.58 4.68,-4.37 4.39,-3.17 3.78,-0.60 3.18,1.95 2.78,2.40 2.39,2.86 1.87,3.17 1.35,3.48 0.76,3.60 0.17,3.73 -0.42,3.66 -1.02,3.59 -1.57,3.33 -2.12,3.07 -2.55,2.65 -2.99,2.23 -3.27,1.69 -3.54,1.16 -3.64,0.56 -3.73,-0.03 -3.63,-0.62 -3.52,-1.22 -3.24,-1.75 -2.95,-2.28 -2.51,-2.69 -2.06,-3.10 -1.51,-3.35 -0.96,-3.60 -0.36,-3.66 0.23,-3.72 0.82,-3.59 1.41,-3.45 1.92,-3.14 2.44,-2.82 2.82,-2.36 3.21,-1.89 3.43,-1.33 3.65,-0.77 3.68,-0.16 3.70,0.43 3.54,1.01 3.37,1.59 3.03,2.09 2.68,2.59 2.20,2.95 1.72,3.31 1.14,3.50 0.57,3.69 -0.03,3.68 -0.63,3.68 -1.20,3.48 -1.77,3.28 -2.25,2.91 -2.73,2.54 -3.06,2.04 -3.40,1.53 -3.55,0.95 -3.71,0.37 -3.67,-0.23 -3.64,-0.83 -3.41,-1.39 -3.18,-1.95 -3.18,-1.95 -3.18,-1.95 -3.11,-2.78 -3.04,-3.61 -2.68,-4.69 -2.32,-5.77 -2.16,-6.82 -2.01,-7.88 -1.08,-8.97 -0.15,-10.07 0.88,-10.60 1.92,-11.12 3.27,-11.24 4.61,-11.35 5.85,-11.33 7.08,-11.30 8.37,-11.19 9.67,-11.09 10.99,-10.82 12.30,-10.56 13.76,-10.19 15.21,-9.82 16.31,-9.69 17.41,-9.55 18.67,-9.30 19.94,-9.05 21.10,-8.64 22.26,-8.23 23.52,-7.73 24.78,-7.24 26.01,-6.67 27.24,-6.10 28.69,-5.35 30.14,-4.61 31.58,-3.71 33.02,-2.81 34.09,-2.13 35.17,-1.44 36.13,-0.78 37.09,-0.11 38.51,0.82 39.94,1.77 41.30,2.75 42.67,3.74 43.56,4.49 44.45,5.24 45.34,6.06 46.23,6.88 47.04,7.74 47.85,8.60 48.61,9.48 49.36,10.35 50.03,11.24 50.69,12.12 51.36,13.16 52.03,14.20 52.89,15.73 53.75,17.27 54.46,18.92 55.18,20.57 55.61,22.11 56.04,23.66 56.18,25.38 56.32,27.10 56.17,28.23 56.03,29.37 55.72,30.76 55.40,32.15 54.83,33.44 54.26,34.74 53.50,35.53 52.75,36.32 51.78,36.90 50.81,37.48 49.69,37.87 48.57,38.26 47.43,38.40 46.29,38.54 45.06,38.46 43.83,38.39 42.51,37.93 41.20,37.46 40.11,36.99 39.02,36.52 37.97,36.08 36.91,35.65 35.66,35.16 34.42,34.66 32.84,34.06 31.26,33.46 30.00,32.85 28.73,32.25 27.16,31.45 25.58,30.66 24.66,30.11 23.74,29.56 22.59,28.86 21.44,28.17 20.52,27.49 19.60,26.82 17.65,25.26 15.71,23.70 14.76,22.54 13.82,21.39 12.83,20.03 11.85,18.67 11.21,17.77 10.57,16.87 9.21,14.99 7.86,13.12 6.92,11.98 5.98,10.84 5.27,9.92 4.56,9.00 3.50,7.77 2.45,6.55 1.63,5.50 0.81,4.46 -0.53,3.01 -1.87,1.56 -2.03,1.31 -2.19,1.07 -2.29,0.79 -2.39,0.51 -2.41,0.22 -2.44,-0.07 -2.40,-0.36 -2.35,-0.65 -2.24,-0.92 -2.13,-1.20 -1.95,-1.43 -1.78,-1.67 -1.55,-1.86 -1.32,-2.05 -1.06,-2.18 -0.79,-2.31 -0.51,-2.37 -0.22,-2.43 0.07,-2.42 0.36,-2.41 0.65,-2.33 0.93,-2.26 1.19,-2.11 1.44,-1.97 1.66,-1.76 1.87,-1.56 1.87,-1.56 L 1.87,-1.56 Z"></path></g><g transform="translate(89.47288679118083 39.63097980057296) rotate(0 -3.497600997484369 -8.933863339694653)" stroke="none"><path fill="#6741d9" d="M -1.65,1.94 Q -1.65,1.94 -2.47,1.29 -3.29,0.64 -4.20,-0.08 -5.11,-0.80 -6.06,-1.59 -7.00,-2.39 -7.62,-3.46 -8.24,-4.54 -8.63,-5.69 -9.03,-6.84 -9.30,-7.90 -9.57,-8.96 -9.87,-10.00 -10.16,-11.03 -10.29,-12.14 -10.42,-13.25 -10.43,-15.55 -10.45,-17.86 -10.36,-18.42 -10.27,-18.97 -10.01,-19.46 -9.75,-19.96 -9.34,-20.34 -8.93,-20.73 -8.42,-20.96 -7.92,-21.20 -7.36,-21.26 -6.80,-21.32 -6.26,-21.20 -5.71,-21.08 -5.23,-20.79 -4.75,-20.50 -4.39,-20.07 -4.02,-19.65 -3.82,-19.13 -3.61,-18.61 -3.58,-18.05 -3.55,-17.49 -3.70,-16.95 -3.85,-16.41 -4.16,-15.95 -4.48,-15.48 -4.92,-15.14 -5.37,-14.80 -5.90,-14.63 -6.43,-14.45 -6.99,-14.45 -7.55,-14.45 -8.08,-14.63 -8.61,-14.80 -9.06,-15.14 -9.50,-15.48 -9.82,-15.95 -10.13,-16.41 -10.28,-16.95 -10.43,-17.49 -10.40,-18.05 -10.37,-18.61 -10.16,-19.13 -9.96,-19.65 -9.59,-20.07 -9.23,-20.50 -8.75,-20.79 -8.27,-21.08 -7.72,-21.20 -7.18,-21.32 -6.62,-21.26 -6.06,-21.20 -5.56,-20.96 -5.05,-20.73 -4.64,-20.34 -4.23,-19.96 -3.97,-19.46 -3.71,-18.97 -3.62,-18.41 -3.53,-17.86 -3.53,-17.86 -3.53,-17.86 -3.53,-16.28 -3.53,-14.70 -3.55,-13.52 -3.56,-12.34 -3.30,-10.92 -3.03,-9.50 -2.84,-8.42 -2.65,-7.34 -2.15,-6.28 -1.65,-5.23 -0.77,-4.29 0.09,-3.35 0.87,-2.65 1.65,-1.94 1.86,-1.72 2.07,-1.49 2.21,-1.22 2.36,-0.95 2.44,-0.65 2.52,-0.36 2.53,-0.05 2.54,0.25 2.47,0.55 2.40,0.85 2.26,1.13 2.13,1.40 1.93,1.64 1.73,1.87 1.48,2.05 1.23,2.23 0.94,2.35 0.66,2.46 0.35,2.50 0.05,2.55 -0.25,2.52 -0.55,2.49 -0.84,2.38 -1.13,2.28 -1.39,2.11 -1.65,1.94 -1.65,1.94 L -1.65,1.94 Z"></path></g><g transform="translate(63.05168764792779 40.795841536862554) rotate(0 10.24031545922162 2.1913184045362186)" stroke="none"><path fill="#6741d9" d="M 0,-2.64 Q 0,-2.64 1.16,-2.66 2.32,-2.67 3.39,-2.75 4.46,-2.82 5.83,-2.87 7.19,-2.93 8.43,-2.83 9.68,-2.72 10.93,-2.49 12.19,-2.26 13.27,-2.02 14.36,-1.79 15.56,-1.46 16.76,-1.14 17.91,-0.82 19.06,-0.50 21.46,1.69 23.87,3.89 23.85,4.44 23.84,5.00 23.66,5.52 23.47,6.04 23.13,6.48 22.78,6.91 22.32,7.21 21.85,7.51 21.32,7.65 20.78,7.79 20.23,7.75 19.67,7.71 19.16,7.49 18.65,7.28 18.24,6.91 17.82,6.54 17.55,6.06 17.27,5.58 17.16,5.04 17.05,4.50 17.12,3.95 17.19,3.40 17.44,2.90 17.68,2.40 18.07,2.01 18.46,1.61 18.95,1.36 19.45,1.11 20.00,1.03 20.54,0.95 21.09,1.05 21.63,1.15 22.12,1.42 22.60,1.69 22.97,2.10 23.35,2.51 23.57,3.02 23.79,3.53 23.84,4.08 23.89,4.63 23.76,5.17 23.63,5.71 23.34,6.18 23.04,6.65 22.61,7.00 22.18,7.35 21.66,7.54 21.14,7.74 20.59,7.76 20.04,7.77 19.51,7.62 18.98,7.46 18.52,7.14 18.07,6.82 17.75,6.37 17.42,5.92 17.25,5.39 17.09,4.86 17.09,4.86 17.09,4.87 17.01,5.43 16.94,6.00 15.88,5.64 14.82,5.28 13.53,4.81 12.23,4.33 10.95,3.97 9.67,3.61 8.29,3.32 6.92,3.03 5.69,2.92 4.46,2.82 3.39,2.75 2.32,2.67 1.16,2.66 0,2.64 -0.31,2.60 -0.63,2.56 -0.93,2.45 -1.22,2.34 -1.49,2.16 -1.75,1.97 -1.96,1.74 -2.17,1.50 -2.32,1.21 -2.47,0.93 -2.54,0.62 -2.62,0.31 -2.62,-0.00 -2.62,-0.31 -2.54,-0.62 -2.47,-0.93 -2.32,-1.22 -2.17,-1.50 -1.96,-1.74 -1.75,-1.97 -1.49,-2.16 -1.22,-2.34 -0.93,-2.45 -0.63,-2.56 -0.31,-2.60 0.00,-2.64 0.00,-2.64 L 0,-2.64 Z"></path></g><g transform="translate(93.8522044482861 53.74103386545062) rotate(0 0.00005967608558421489 0.000059676085811588564)" stroke="none"><path fill="#6741d9" d="M 1.57,-1.57 Q 1.57,-1.57 1.77,-1.27 1.98,-0.98 2.09,-0.64 2.20,-0.29 2.19,0.05 2.18,0.41 2.05,0.75 1.93,1.09 1.70,1.37 1.48,1.65 1.18,1.84 0.87,2.04 0.52,2.12 0.18,2.21 -0.17,2.18 -0.53,2.15 -0.86,2.01 -1.19,1.87 -1.46,1.63 -1.73,1.39 -1.90,1.07 -2.08,0.76 -2.15,0.41 -2.21,0.05 -2.17,-0.29 -2.12,-0.65 -1.96,-0.97 -1.80,-1.29 -1.54,-1.54 -1.29,-1.80 -0.97,-1.96 -0.65,-2.12 -0.29,-2.17 0.06,-2.21 0.41,-2.15 0.76,-2.08 1.07,-1.90 1.39,-1.73 1.63,-1.46 1.87,-1.19 2.01,-0.86 2.15,-0.53 2.18,-0.17 2.21,0.18 2.12,0.52 2.03,0.87 1.84,1.18 1.65,1.48 1.37,1.70 1.09,1.93 0.75,2.05 0.41,2.18 0.05,2.19 -0.30,2.20 -0.64,2.09 -0.98,1.98 -1.27,1.77 -1.57,1.56 -1.57,1.57 -1.57,1.57 -1.73,1.35 -1.90,1.14 -2.01,0.90 -2.12,0.66 -2.16,0.39 -2.21,0.13 -2.20,-0.13 -2.18,-0.40 -2.10,-0.65 -2.02,-0.91 -1.88,-1.14 -1.74,-1.36 -1.55,-1.55 -1.36,-1.74 -1.14,-1.88 -0.91,-2.02 -0.65,-2.10 -0.40,-2.18 -0.13,-2.20 0.13,-2.21 0.39,-2.16 0.66,-2.12 0.90,-2.01 1.14,-1.90 1.35,-1.73 1.57,-1.57 1.57,-1.57 L 1.57,-1.57 Z"></path></g><g transform="translate(100.20374079029989 47.90858790821153) rotate(0 0.00005967608558421489 0.000059676085811588564)" stroke="none"><path fill="#6741d9" d="M 1.57,-1.57 Q 1.57,-1.57 1.77,-1.27 1.98,-0.98 2.09,-0.64 2.20,-0.29 2.19,0.05 2.18,0.41 2.05,0.75 1.93,1.09 1.70,1.37 1.48,1.65 1.18,1.84 0.87,2.04 0.52,2.12 0.18,2.21 -0.17,2.18 -0.53,2.15 -0.86,2.01 -1.19,1.87 -1.46,1.63 -1.73,1.39 -1.90,1.07 -2.08,0.76 -2.15,0.41 -2.21,0.05 -2.17,-0.29 -2.12,-0.65 -1.96,-0.97 -1.80,-1.29 -1.54,-1.54 -1.29,-1.80 -0.97,-1.96 -0.65,-2.12 -0.29,-2.17 0.06,-2.21 0.41,-2.15 0.76,-2.08 1.07,-1.90 1.39,-1.73 1.63,-1.46 1.87,-1.19 2.01,-0.86 2.15,-0.53 2.18,-0.17 2.21,0.18 2.12,0.52 2.03,0.87 1.84,1.18 1.65,1.48 1.37,1.70 1.09,1.93 0.75,2.05 0.41,2.18 0.05,2.19 -0.30,2.20 -0.64,2.09 -0.98,1.98 -1.27,1.77 -1.57,1.56 -1.57,1.57 -1.57,1.57 -1.73,1.35 -1.90,1.14 -2.01,0.90 -2.12,0.66 -2.16,0.39 -2.21,0.13 -2.20,-0.13 -2.18,-0.40 -2.10,-0.65 -2.02,-0.91 -1.88,-1.14 -1.74,-1.36 -1.55,-1.55 -1.36,-1.74 -1.14,-1.88 -0.91,-2.02 -0.65,-2.10 -0.40,-2.18 -0.13,-2.20 0.13,-2.21 0.39,-2.16 0.66,-2.12 0.90,-2.01 1.14,-1.90 1.35,-1.73 1.57,-1.57 1.57,-1.57 L 1.57,-1.57 Z"></path></g><g transform="translate(99.20638915892505 60.69546025695399) rotate(0 6.5741158177361285 -4.846184933109043)" stroke="none"><path fill="#6741d9" d="M -0.13,-2.66 Q -0.13,-2.66 0.83,-2.73 1.80,-2.81 3.06,-3.00 4.33,-3.18 5.46,-3.32 6.60,-3.46 7.72,-3.81 8.85,-4.16 9.81,-4.80 10.77,-5.44 10.23,-7.56 9.69,-9.69 9.78,-10.24 9.87,-10.79 10.13,-11.29 10.39,-11.78 10.80,-12.16 11.20,-12.55 11.71,-12.78 12.22,-13.02 12.77,-13.08 13.33,-13.14 13.88,-13.02 14.42,-12.90 14.90,-12.61 15.38,-12.32 15.74,-11.90 16.11,-11.47 16.31,-10.95 16.52,-10.43 16.55,-9.87 16.58,-9.31 16.43,-8.77 16.28,-8.23 15.97,-7.77 15.65,-7.31 15.21,-6.97 14.76,-6.63 14.23,-6.45 13.70,-6.27 13.14,-6.27 12.58,-6.27 12.05,-6.45 11.52,-6.63 11.08,-6.97 10.63,-7.31 10.32,-7.77 10.00,-8.24 9.85,-8.78 9.71,-9.31 9.74,-9.87 9.77,-10.43 9.97,-10.95 10.18,-11.47 10.54,-11.90 10.91,-12.32 11.38,-12.61 11.86,-12.90 12.41,-13.02 12.96,-13.14 13.51,-13.08 14.07,-13.02 14.58,-12.78 15.08,-12.55 15.49,-12.16 15.90,-11.78 16.16,-11.29 16.42,-10.79 16.51,-10.24 16.60,-9.69 16.60,-9.69 16.60,-9.69 16.59,-7.85 16.57,-6.01 16.51,-4.89 16.45,-3.76 16.17,-2.67 15.89,-1.57 14.95,-0.69 14.01,0.19 12.92,0.78 11.83,1.37 10.64,1.76 9.44,2.15 8.32,2.30 7.19,2.45 6.05,2.47 4.91,2.50 3.49,2.56 2.07,2.62 1.10,2.64 0.13,2.66 -0.18,2.63 -0.50,2.61 -0.81,2.51 -1.11,2.41 -1.39,2.24 -1.66,2.07 -1.88,1.85 -2.11,1.62 -2.27,1.34 -2.44,1.06 -2.53,0.76 -2.62,0.45 -2.64,0.13 -2.65,-0.18 -2.59,-0.50 -2.53,-0.81 -2.40,-1.11 -2.26,-1.40 -2.06,-1.65 -1.86,-1.90 -1.60,-2.09 -1.35,-2.29 -1.05,-2.42 -0.76,-2.55 -0.44,-2.60 -0.13,-2.66 -0.13,-2.66 L -0.13,-2.66 Z"></path></g><g transform="translate(108.31064455537762 72.05129629553676) rotate(0 8.59681773336797 -5.604718226986847)" stroke="none"><path fill="#6741d9" d="M -0.13,-2.67 Q -0.13,-2.67 0.83,-2.75 1.80,-2.82 3.40,-3.24 5.01,-3.66 6.10,-3.97 7.18,-4.29 8.24,-4.70 9.30,-5.12 10.53,-5.80 11.77,-6.47 12.47,-7.49 13.17,-8.52 13.46,-9.86 13.76,-11.21 13.85,-11.75 13.94,-12.30 14.20,-12.79 14.46,-13.28 14.86,-13.66 15.26,-14.04 15.77,-14.28 16.27,-14.51 16.82,-14.57 17.38,-14.63 17.92,-14.51 18.46,-14.39 18.93,-14.10 19.41,-13.82 19.77,-13.39 20.13,-12.97 20.33,-12.46 20.54,-11.94 20.57,-11.39 20.60,-10.83 20.45,-10.30 20.30,-9.76 19.99,-9.30 19.68,-8.85 19.24,-8.51 18.79,-8.17 18.27,-8.00 17.74,-7.82 17.19,-7.82 16.63,-7.82 16.11,-8.00 15.58,-8.17 15.14,-8.51 14.70,-8.85 14.39,-9.31 14.08,-9.77 13.93,-10.30 13.78,-10.84 13.81,-11.39 13.84,-11.94 14.05,-12.46 14.25,-12.97 14.61,-13.40 14.97,-13.82 15.45,-14.11 15.92,-14.39 16.46,-14.51 17.00,-14.63 17.56,-14.57 18.11,-14.51 18.61,-14.28 19.11,-14.04 19.52,-13.66 19.92,-13.28 20.18,-12.79 20.44,-12.30 20.53,-11.75 20.62,-11.20 20.62,-11.20 20.62,-11.20 20.21,-9.01 19.79,-6.81 19.35,-5.71 18.90,-4.61 18.16,-3.61 17.42,-2.61 16.33,-1.84 15.24,-1.06 13.80,-0.31 12.36,0.43 11.20,0.80 10.04,1.18 8.84,1.48 7.65,1.78 6.31,2.03 4.98,2.28 3.53,2.45 2.07,2.63 1.10,2.65 0.13,2.67 -0.18,2.64 -0.50,2.62 -0.81,2.52 -1.12,2.42 -1.39,2.25 -1.67,2.08 -1.89,1.85 -2.12,1.62 -2.28,1.35 -2.45,1.07 -2.54,0.76 -2.63,0.45 -2.65,0.13 -2.66,-0.18 -2.60,-0.50 -2.54,-0.82 -2.41,-1.11 -2.27,-1.40 -2.07,-1.65 -1.87,-1.91 -1.61,-2.10 -1.35,-2.30 -1.06,-2.43 -0.76,-2.56 -0.45,-2.61 -0.13,-2.67 -0.13,-2.67 L -0.13,-2.67 Z"></path></g><g transform="translate(105.54050187320627 40.23672863074444) rotate(0 17.88702816076693 -9.33072531719904)" stroke="none"><path fill="#6741d9" d="M -2.58,-0.36 Q -2.58,-0.36 -2.50,-1.24 -2.41,-2.12 -2.34,-3.26 -2.28,-4.41 -2.26,-5.83 -2.24,-7.25 -2.18,-8.47 -2.11,-9.70 -1.93,-10.92 -1.75,-12.13 -1.54,-13.44 -1.33,-14.74 -1.04,-16.15 -0.75,-17.55 -0.46,-18.82 -0.18,-20.08 0.30,-21.06 0.78,-22.05 1.80,-23.38 2.83,-24.71 3.86,-25.77 4.90,-26.82 5.89,-27.57 6.88,-28.32 7.95,-28.85 9.01,-29.39 10.13,-29.56 11.26,-29.72 12.88,-29.58 14.51,-29.44 15.69,-29.09 16.86,-28.75 17.69,-28.07 18.52,-27.40 19.15,-26.10 19.78,-24.79 20.02,-23.61 20.26,-22.43 20.46,-21.26 20.66,-20.09 21.31,-19.11 21.96,-18.12 22.90,-18.72 23.83,-19.33 24.90,-19.67 25.96,-20.02 27.13,-20.18 28.30,-20.34 29.44,-20.25 30.58,-20.15 31.85,-19.70 33.12,-19.25 34.12,-18.67 35.11,-18.09 36.09,-17.32 37.06,-16.55 37.89,-15.43 38.72,-14.31 39.08,-13.06 39.43,-11.81 39.52,-10.52 39.61,-9.24 39.50,-8.03 39.38,-6.82 38.97,-5.63 38.56,-4.44 37.98,-3.51 37.40,-2.58 36.50,-1.53 35.61,-0.49 34.86,0.29 34.11,1.09 33.13,1.83 32.15,2.57 31.10,3.10 30.06,3.62 28.84,4.20 27.62,4.77 26.52,5.37 25.42,5.98 24.51,6.73 23.59,7.47 21.14,9.34 18.68,11.20 18.07,11.20 17.45,11.19 16.87,10.99 16.29,10.79 15.80,10.41 15.32,10.04 14.98,9.52 14.63,9.01 14.48,8.42 14.32,7.82 14.36,7.21 14.39,6.59 14.63,6.02 14.86,5.45 15.26,4.99 15.67,4.52 16.20,4.21 16.73,3.90 17.33,3.77 17.93,3.65 18.54,3.72 19.15,3.79 19.71,4.05 20.26,4.32 20.71,4.74 21.15,5.17 21.43,5.72 21.72,6.26 21.81,6.87 21.90,7.48 21.80,8.09 21.69,8.69 21.40,9.23 21.11,9.77 20.66,10.19 20.21,10.61 19.65,10.87 19.08,11.12 18.47,11.18 17.86,11.24 17.26,11.10 16.66,10.97 16.14,10.64 15.61,10.32 15.22,9.85 14.82,9.38 14.60,8.80 14.38,8.23 14.35,7.61 14.32,7.00 14.49,6.41 14.66,5.82 15.01,5.31 15.36,4.80 15.86,4.44 16.35,4.07 16.94,3.88 17.52,3.69 17.52,3.69 17.52,3.69 18.19,2.58 18.86,1.47 19.72,0.79 20.57,0.12 21.80,-0.67 23.03,-1.47 24.01,-1.98 24.99,-2.50 26.25,-3.11 27.52,-3.71 28.43,-4.37 29.34,-5.02 30.16,-6.00 30.98,-6.98 31.42,-8.00 31.85,-9.01 31.64,-10.15 31.42,-11.28 30.51,-11.84 29.59,-12.40 28.48,-12.42 27.37,-12.43 26.26,-12.10 25.16,-11.77 24.04,-11.65 22.92,-11.52 21.81,-11.53 20.70,-11.54 19.24,-11.75 17.79,-11.97 16.71,-12.82 15.63,-13.68 14.89,-14.81 14.15,-15.94 13.79,-17.02 13.42,-18.11 13.21,-19.23 13.00,-20.35 12.44,-21.40 11.87,-22.44 10.86,-22.07 9.85,-21.69 9.10,-20.93 8.35,-20.17 7.59,-19.23 6.83,-18.29 6.42,-17.20 6.00,-16.10 5.63,-14.67 5.27,-13.25 4.97,-12.04 4.67,-10.84 4.38,-9.70 4.09,-8.56 3.91,-7.24 3.74,-5.91 3.56,-4.72 3.38,-3.52 3.14,-2.44 2.91,-1.36 2.74,-0.49 2.58,0.36 2.50,0.67 2.42,0.97 2.27,1.25 2.11,1.52 1.90,1.76 1.69,1.99 1.42,2.16 1.16,2.33 0.86,2.44 0.57,2.54 0.25,2.58 -0.05,2.61 -0.36,2.56 -0.67,2.52 -0.97,2.40 -1.26,2.28 -1.51,2.10 -1.77,1.91 -1.97,1.67 -2.18,1.43 -2.32,1.15 -2.46,0.87 -2.53,0.56 -2.59,0.26 -2.59,-0.05 -2.58,-0.36 -2.58,-0.36 L -2.58,-0.36 Z"></path></g><g transform="translate(122.64719419906032 49.6085707967095) rotate(0 17.577016126741455 3.9884699578531126)" stroke="none"><path fill="#6741d9" d="M -1.78,-1.82 Q -1.78,-1.82 -1.43,-2.22 -1.09,-2.62 -0.40,-3.46 0.28,-4.30 0.98,-5.20 1.68,-6.11 2.69,-7.04 3.71,-7.97 4.71,-8.62 5.71,-9.28 7.05,-9.96 8.40,-10.65 9.36,-11.12 10.33,-11.59 11.34,-12.11 12.36,-12.63 13.57,-13.07 14.77,-13.50 15.95,-13.64 17.12,-13.78 18.19,-13.73 19.27,-13.67 20.43,-13.48 21.60,-13.28 22.71,-12.69 23.83,-12.09 24.68,-11.16 25.53,-10.23 26.03,-9.15 26.54,-8.07 26.64,-6.82 26.74,-5.57 26.57,-4.50 26.40,-3.43 26.16,-2.39 25.91,-1.34 25.00,-2.17 24.09,-3.00 24.97,-3.83 25.85,-4.65 27.18,-4.68 28.52,-4.70 29.62,-4.27 30.73,-3.85 31.70,-3.24 32.67,-2.63 33.64,-1.90 34.60,-1.17 35.39,-0.44 36.18,0.28 36.88,1.18 37.58,2.08 38.10,3.05 38.63,4.03 38.84,5.23 39.06,6.42 38.90,7.66 38.74,8.89 38.27,9.99 37.79,11.09 37.05,12.16 36.31,13.23 35.50,14.07 34.70,14.91 33.58,15.82 32.46,16.73 31.46,17.34 30.45,17.96 29.42,18.50 28.38,19.03 27.32,19.54 26.25,20.04 23.11,21.07 19.96,22.09 19.34,21.99 18.72,21.89 18.16,21.59 17.60,21.30 17.17,20.84 16.74,20.38 16.47,19.81 16.21,19.24 16.14,18.61 16.07,17.99 16.21,17.37 16.34,16.76 16.67,16.22 16.99,15.68 17.47,15.27 17.95,14.86 18.54,14.63 19.12,14.40 19.75,14.36 20.38,14.33 20.99,14.50 21.59,14.67 22.12,15.02 22.64,15.37 23.02,15.87 23.40,16.38 23.60,16.97 23.80,17.57 23.80,18.20 23.80,18.83 23.60,19.43 23.40,20.02 23.02,20.52 22.64,21.03 22.11,21.38 21.59,21.73 20.99,21.90 20.38,22.07 19.75,22.04 19.12,22.00 18.54,21.77 17.95,21.53 17.47,21.13 16.99,20.72 16.67,20.18 16.34,19.64 16.21,19.02 16.07,18.41 16.14,17.78 16.21,17.16 16.47,16.58 16.74,16.01 17.17,15.56 17.60,15.10 18.16,14.80 18.72,14.51 19.34,14.41 19.96,14.31 19.96,14.31 19.96,14.31 21.27,13.74 22.58,13.18 23.58,12.72 24.57,12.26 25.62,11.73 26.66,11.20 27.55,10.62 28.45,10.04 29.31,9.20 30.17,8.36 30.59,7.36 31.02,6.36 30.27,5.56 29.53,4.76 28.64,4.04 27.75,3.31 26.77,2.89 25.78,2.47 26.98,2.60 28.18,2.73 27.28,3.34 26.39,3.96 25.14,4.30 23.89,4.64 22.71,4.44 21.52,4.25 20.58,3.72 19.65,3.18 18.90,1.83 18.15,0.48 18.19,-0.78 18.23,-2.04 18.50,-3.08 18.76,-4.12 18.88,-5.25 19.01,-6.38 17.91,-6.53 16.82,-6.67 15.78,-6.37 14.74,-6.06 13.66,-5.60 12.57,-5.14 11.38,-4.63 10.18,-4.13 9.15,-3.65 8.12,-3.16 7.15,-2.63 6.17,-2.10 5.28,-1.26 4.40,-0.42 3.50,0.35 2.60,1.14 2.19,1.48 1.78,1.82 1.54,2.00 1.29,2.19 1.01,2.31 0.73,2.44 0.43,2.49 0.12,2.54 -0.17,2.52 -0.48,2.50 -0.77,2.40 -1.06,2.31 -1.33,2.15 -1.59,1.99 -1.80,1.77 -2.02,1.55 -2.17,1.28 -2.33,1.02 -2.42,0.72 -2.51,0.43 -2.52,0.12 -2.54,-0.17 -2.48,-0.48 -2.42,-0.78 -2.29,-1.06 -2.16,-1.34 -1.97,-1.58 -1.78,-1.82 -1.78,-1.82 L -1.78,-1.82 Z"></path></g><g transform="translate(137.89419407790592 69.6945176132856) rotate(0 2.895398687663146 -1.6655280430866242)" stroke="none"><path fill="#6741d9" d="M -0.74,-2.36 Q -0.74,-2.36 -0.18,-2.59 0.38,-2.82 1.81,-3.70 3.25,-4.58 3.51,-4.96 3.78,-5.33 4.15,-5.60 4.53,-5.86 4.96,-6.00 5.40,-6.13 5.86,-6.12 6.32,-6.11 6.75,-5.95 7.18,-5.79 7.54,-5.51 7.89,-5.22 8.14,-4.83 8.39,-4.45 8.50,-4.00 8.61,-3.56 8.57,-3.10 8.54,-2.64 8.35,-2.22 8.17,-1.80 7.87,-1.46 7.56,-1.12 7.16,-0.89 6.76,-0.67 6.31,-0.58 5.86,-0.49 5.41,-0.56 4.95,-0.62 4.54,-0.82 4.13,-1.02 3.81,-1.35 3.48,-1.67 3.28,-2.08 3.08,-2.49 3.02,-2.95 2.95,-3.40 3.04,-3.85 3.13,-4.30 3.35,-4.70 3.58,-5.10 3.92,-5.41 4.26,-5.71 4.68,-5.89 5.10,-6.08 5.56,-6.11 6.02,-6.15 6.46,-6.04 6.91,-5.93 7.29,-5.68 7.68,-5.44 7.97,-5.08 8.25,-4.72 8.41,-4.29 8.57,-3.86 8.58,-3.40 8.59,-2.94 8.46,-2.51 8.32,-2.07 8.32,-2.07 8.32,-2.07 6.34,-0.42 4.35,1.22 3.14,1.65 1.94,2.08 1.34,2.22 0.74,2.36 0.45,2.41 0.16,2.47 -0.13,2.45 -0.43,2.44 -0.72,2.35 -1.00,2.26 -1.26,2.11 -1.52,1.95 -1.73,1.74 -1.94,1.53 -2.10,1.28 -2.25,1.02 -2.34,0.74 -2.43,0.45 -2.45,0.15 -2.47,-0.13 -2.42,-0.43 -2.37,-0.72 -2.24,-1.00 -2.12,-1.27 -1.94,-1.50 -1.76,-1.74 -1.52,-1.93 -1.29,-2.11 -1.01,-2.24 -0.74,-2.36 -0.74,-2.36 L -0.74,-2.36 Z"></path></g><g transform="translate(136.69233866053855 68.0553772667813) rotate(0 5.7796108148104395 -1.5515466481039084)" stroke="none"><path fill="#6741d9" d="M -0.68,-2.47 Q -0.68,-2.47 0.66,-2.84 2.01,-3.21 3.14,-3.54 4.28,-3.88 5.51,-4.29 6.75,-4.71 7.79,-4.37 8.83,-4.04 9.05,-4.44 9.27,-4.85 9.61,-5.16 9.95,-5.48 10.37,-5.67 10.79,-5.86 11.25,-5.90 11.71,-5.95 12.16,-5.84 12.61,-5.74 13.01,-5.50 13.40,-5.26 13.70,-4.90 13.99,-4.55 14.16,-4.11 14.32,-3.68 14.34,-3.22 14.37,-2.76 14.24,-2.32 14.11,-1.87 13.85,-1.49 13.58,-1.11 13.21,-0.84 12.84,-0.56 12.40,-0.42 11.96,-0.27 11.50,-0.28 11.04,-0.28 10.60,-0.44 10.16,-0.59 9.80,-0.87 9.43,-1.16 9.18,-1.54 8.92,-1.93 8.80,-2.37 8.69,-2.82 8.72,-3.28 8.75,-3.74 8.92,-4.17 9.10,-4.60 9.40,-4.95 9.70,-5.29 10.10,-5.53 10.50,-5.76 10.95,-5.86 11.40,-5.95 11.86,-5.90 12.32,-5.84 12.74,-5.64 13.16,-5.45 13.49,-5.12 13.82,-4.80 14.03,-4.39 14.25,-3.98 14.31,-3.52 14.38,-3.07 14.31,-2.61 14.23,-2.16 14.23,-2.16 14.23,-2.16 11.22,-0.77 8.21,0.61 6.93,0.87 5.65,1.14 4.51,1.42 3.38,1.71 2.03,2.09 0.68,2.47 0.38,2.51 0.07,2.56 -0.23,2.53 -0.53,2.50 -0.83,2.40 -1.12,2.30 -1.38,2.13 -1.64,1.97 -1.85,1.74 -2.06,1.52 -2.21,1.25 -2.37,0.98 -2.45,0.68 -2.53,0.38 -2.54,0.07 -2.55,-0.23 -2.49,-0.53 -2.42,-0.83 -2.28,-1.11 -2.15,-1.39 -1.95,-1.63 -1.75,-1.86 -1.50,-2.05 -1.26,-2.23 -0.97,-2.35 -0.68,-2.47 -0.68,-2.47 L -0.68,-2.47 Z"></path></g><g transform="translate(97.94733161877593 36.75407710595164) rotate(0 4.900732521567079 -13.377038552975819)" stroke="none"><path fill="#6741d9" d="M -2.52,0.36 Q -2.52,0.36 -2.71,-0.62 -2.89,-1.62 -3.12,-2.66 -3.34,-3.70 -3.57,-4.81 -3.79,-5.91 -3.95,-7.03 -4.10,-8.15 -4.27,-9.21 -4.43,-10.26 -4.56,-11.65 -4.69,-13.04 -4.68,-14.38 -4.67,-15.73 -4.46,-16.97 -4.25,-18.21 -3.96,-19.47 -3.68,-20.73 -3.09,-21.98 -2.50,-23.22 -1.81,-24.37 -1.12,-25.52 -0.32,-26.40 0.47,-27.28 1.55,-28.03 2.62,-28.78 3.65,-29.27 4.67,-29.76 5.79,-30.07 6.91,-30.39 8.29,-30.35 9.67,-30.31 10.82,-29.81 11.98,-29.32 12.83,-28.62 13.68,-27.91 14.27,-26.91 14.85,-25.90 14.57,-23.39 14.29,-20.88 14.02,-20.33 13.75,-19.78 13.32,-19.35 12.90,-18.91 12.35,-18.63 11.80,-18.36 11.20,-18.27 10.59,-18.18 9.99,-18.29 9.39,-18.40 8.85,-18.69 8.32,-18.99 7.91,-19.44 7.49,-19.89 7.25,-20.45 7.00,-21.01 6.94,-21.62 6.89,-22.23 7.03,-22.83 7.17,-23.42 7.50,-23.94 7.82,-24.46 8.29,-24.85 8.77,-25.23 9.34,-25.45 9.91,-25.67 10.52,-25.69 11.14,-25.71 11.72,-25.54 12.31,-25.36 12.81,-25.01 13.31,-24.66 13.67,-24.17 14.03,-23.67 14.22,-23.09 14.40,-22.51 14.39,-21.89 14.38,-21.28 14.18,-20.71 13.97,-20.13 13.59,-19.65 13.21,-19.17 12.70,-18.83 12.19,-18.50 11.59,-18.35 11.00,-18.19 10.39,-18.24 9.78,-18.28 9.22,-18.52 8.65,-18.76 8.19,-19.16 7.73,-19.56 7.43,-20.09 7.12,-20.62 7.00,-21.22 6.88,-21.82 6.96,-22.43 7.03,-23.04 7.03,-23.04 7.03,-23.04 6.90,-22.87 6.77,-22.70 5.86,-22.16 4.94,-21.62 4.32,-20.68 3.69,-19.74 3.13,-18.49 2.57,-17.24 2.25,-15.91 1.93,-14.59 1.91,-13.51 1.88,-12.44 1.94,-11.23 2.00,-10.01 2.03,-8.62 2.06,-7.22 2.11,-6.12 2.15,-5.01 2.23,-3.69 2.30,-2.38 2.41,-1.37 2.52,-0.36 2.53,-0.06 2.54,0.24 2.47,0.54 2.41,0.84 2.27,1.12 2.13,1.40 1.93,1.63 1.73,1.87 1.49,2.05 1.24,2.23 0.95,2.35 0.67,2.46 0.36,2.51 0.06,2.55 -0.24,2.52 -0.55,2.49 -0.84,2.39 -1.13,2.29 -1.39,2.12 -1.64,1.95 -1.85,1.72 -2.06,1.50 -2.21,1.23 -2.36,0.96 -2.44,0.66 -2.52,0.36 -2.52,0.36 L -2.52,0.36 Z"></path></g><g transform="translate(115.13492153451989 37.834331451358366) rotate(0 0.00005967608558421489 0.000059676085811588564)" stroke="none"><path fill="#6741d9" d="M 1.57,-1.57 Q 1.57,-1.57 1.77,-1.27 1.98,-0.98 2.09,-0.64 2.20,-0.29 2.19,0.05 2.18,0.41 2.05,0.75 1.93,1.09 1.70,1.37 1.48,1.65 1.18,1.84 0.87,2.04 0.52,2.12 0.18,2.21 -0.17,2.18 -0.53,2.15 -0.86,2.01 -1.19,1.87 -1.46,1.63 -1.73,1.39 -1.90,1.07 -2.08,0.76 -2.15,0.41 -2.21,0.05 -2.17,-0.29 -2.12,-0.65 -1.96,-0.97 -1.80,-1.29 -1.54,-1.54 -1.29,-1.80 -0.97,-1.96 -0.65,-2.12 -0.29,-2.17 0.06,-2.21 0.41,-2.15 0.76,-2.08 1.07,-1.90 1.39,-1.73 1.63,-1.46 1.87,-1.19 2.01,-0.86 2.15,-0.53 2.18,-0.17 2.21,0.18 2.12,0.52 2.03,0.87 1.84,1.18 1.65,1.48 1.37,1.70 1.09,1.93 0.75,2.05 0.41,2.18 0.05,2.19 -0.30,2.20 -0.64,2.09 -0.98,1.98 -1.27,1.77 -1.57,1.56 -1.57,1.57 -1.57,1.57 -1.73,1.35 -1.90,1.14 -2.01,0.90 -2.12,0.66 -2.16,0.39 -2.21,0.13 -2.20,-0.13 -2.18,-0.40 -2.10,-0.65 -2.02,-0.91 -1.88,-1.14 -1.74,-1.36 -1.55,-1.55 -1.36,-1.74 -1.14,-1.88 -0.91,-2.02 -0.65,-2.10 -0.40,-2.18 -0.13,-2.20 0.13,-2.21 0.39,-2.16 0.66,-2.12 0.90,-2.01 1.14,-1.90 1.35,-1.73 1.57,-1.57 1.57,-1.57 L 1.57,-1.57 Z"></path></g><g transform="translate(123.44725169088815 34.44063335870669) rotate(0 0.00005967608558421489 0.000059676085811588564)" stroke="none"><path fill="#6741d9" d="M 1.57,-1.57 Q 1.57,-1.57 1.77,-1.27 1.98,-0.98 2.09,-0.64 2.20,-0.29 2.19,0.05 2.18,0.41 2.05,0.75 1.93,1.09 1.70,1.37 1.48,1.65 1.18,1.84 0.87,2.04 0.52,2.12 0.18,2.21 -0.17,2.18 -0.53,2.15 -0.86,2.01 -1.19,1.87 -1.46,1.63 -1.73,1.39 -1.90,1.07 -2.08,0.76 -2.15,0.41 -2.21,0.05 -2.17,-0.29 -2.12,-0.65 -1.96,-0.97 -1.80,-1.29 -1.54,-1.54 -1.29,-1.80 -0.97,-1.96 -0.65,-2.12 -0.29,-2.17 0.06,-2.21 0.41,-2.15 0.76,-2.08 1.07,-1.90 1.39,-1.73 1.63,-1.46 1.87,-1.19 2.01,-0.86 2.15,-0.53 2.18,-0.17 2.21,0.18 2.12,0.52 2.03,0.87 1.84,1.18 1.65,1.48 1.37,1.70 1.09,1.93 0.75,2.05 0.41,2.18 0.05,2.19 -0.30,2.20 -0.64,2.09 -0.98,1.98 -1.27,1.77 -1.57,1.56 -1.57,1.57 -1.57,1.57 -1.73,1.35 -1.90,1.14 -2.01,0.90 -2.12,0.66 -2.16,0.39 -2.21,0.13 -2.20,-0.13 -2.18,-0.40 -2.10,-0.65 -2.02,-0.91 -1.88,-1.14 -1.74,-1.36 -1.55,-1.55 -1.36,-1.74 -1.14,-1.88 -0.91,-2.02 -0.65,-2.10 -0.40,-2.18 -0.13,-2.20 0.13,-2.21 0.39,-2.16 0.66,-2.12 0.90,-2.01 1.14,-1.90 1.35,-1.73 1.57,-1.57 1.57,-1.57 L 1.57,-1.57 Z"></path></g><g transform="translate(116.45287540590652 29.010708616071724) rotate(0 0.00005967608558421489 0.000059676085811588564)" stroke="none"><path fill="#6741d9" d="M 1.57,-1.57 Q 1.57,-1.57 1.77,-1.27 1.98,-0.98 2.09,-0.64 2.20,-0.29 2.19,0.05 2.18,0.41 2.05,0.75 1.93,1.09 1.70,1.37 1.48,1.65 1.18,1.84 0.87,2.04 0.52,2.12 0.18,2.21 -0.17,2.18 -0.53,2.15 -0.86,2.01 -1.19,1.87 -1.46,1.63 -1.73,1.39 -1.90,1.07 -2.08,0.76 -2.15,0.41 -2.21,0.05 -2.17,-0.29 -2.12,-0.65 -1.96,-0.97 -1.80,-1.29 -1.54,-1.54 -1.29,-1.80 -0.97,-1.96 -0.65,-2.12 -0.29,-2.17 0.06,-2.21 0.41,-2.15 0.76,-2.08 1.07,-1.90 1.39,-1.73 1.63,-1.46 1.87,-1.19 2.01,-0.86 2.15,-0.53 2.18,-0.17 2.21,0.18 2.12,0.52 2.03,0.87 1.84,1.18 1.65,1.48 1.37,1.70 1.09,1.93 0.75,2.05 0.41,2.18 0.05,2.19 -0.30,2.20 -0.64,2.09 -0.98,1.98 -1.27,1.77 -1.57,1.56 -1.57,1.57 -1.57,1.57 -1.73,1.35 -1.90,1.14 -2.01,0.90 -2.12,0.66 -2.16,0.39 -2.21,0.13 -2.20,-0.13 -2.18,-0.40 -2.10,-0.65 -2.02,-0.91 -1.88,-1.14 -1.74,-1.36 -1.55,-1.55 -1.36,-1.74 -1.14,-1.88 -0.91,-2.02 -0.65,-2.10 -0.40,-2.18 -0.13,-2.20 0.13,-2.21 0.39,-2.16 0.66,-2.12 0.90,-2.01 1.14,-1.90 1.35,-1.73 1.57,-1.57 1.57,-1.57 L 1.57,-1.57 Z"></path></g><g transform="translate(137.1723589258254 51.33492120291157) rotate(0 0.00005967608558421489 0.000059676085811588564)" stroke="none"><path fill="#6741d9" d="M 1.57,-1.57 Q 1.57,-1.57 1.77,-1.27 1.98,-0.98 2.09,-0.64 2.20,-0.29 2.19,0.05 2.18,0.41 2.05,0.75 1.93,1.09 1.70,1.37 1.48,1.65 1.18,1.84 0.87,2.04 0.52,2.12 0.18,2.21 -0.17,2.18 -0.53,2.15 -0.86,2.01 -1.19,1.87 -1.46,1.63 -1.73,1.39 -1.90,1.07 -2.08,0.76 -2.15,0.41 -2.21,0.05 -2.17,-0.29 -2.12,-0.65 -1.96,-0.97 -1.80,-1.29 -1.54,-1.54 -1.29,-1.80 -0.97,-1.96 -0.65,-2.12 -0.29,-2.17 0.06,-2.21 0.41,-2.15 0.76,-2.08 1.07,-1.90 1.39,-1.73 1.63,-1.46 1.87,-1.19 2.01,-0.86 2.15,-0.53 2.18,-0.17 2.21,0.18 2.12,0.52 2.03,0.87 1.84,1.18 1.65,1.48 1.37,1.70 1.09,1.93 0.75,2.05 0.41,2.18 0.05,2.19 -0.30,2.20 -0.64,2.09 -0.98,1.98 -1.27,1.77 -1.57,1.56 -1.57,1.57 -1.57,1.57 -1.73,1.35 -1.90,1.14 -2.01,0.90 -2.12,0.66 -2.16,0.39 -2.21,0.13 -2.20,-0.13 -2.18,-0.40 -2.10,-0.65 -2.02,-0.91 -1.88,-1.14 -1.74,-1.36 -1.55,-1.55 -1.36,-1.74 -1.14,-1.88 -0.91,-2.02 -0.65,-2.10 -0.40,-2.18 -0.13,-2.20 0.13,-2.21 0.39,-2.16 0.66,-2.12 0.90,-2.01 1.14,-1.90 1.35,-1.73 1.57,-1.57 1.57,-1.57 L 1.57,-1.57 Z"></path></g><g transform="translate(140.3013399544452 60.262112031965216) rotate(0 0.00005967608558421489 0.000059676085811588564)" stroke="none"><path fill="#6741d9" d="M 1.57,-1.57 Q 1.57,-1.57 1.77,-1.27 1.98,-0.98 2.09,-0.64 2.20,-0.29 2.19,0.05 2.18,0.41 2.05,0.75 1.93,1.09 1.70,1.37 1.48,1.65 1.18,1.84 0.87,2.04 0.52,2.12 0.18,2.21 -0.17,2.18 -0.53,2.15 -0.86,2.01 -1.19,1.87 -1.46,1.63 -1.73,1.39 -1.90,1.07 -2.08,0.76 -2.15,0.41 -2.21,0.05 -2.17,-0.29 -2.12,-0.65 -1.96,-0.97 -1.80,-1.29 -1.54,-1.54 -1.29,-1.80 -0.97,-1.96 -0.65,-2.12 -0.29,-2.17 0.06,-2.21 0.41,-2.15 0.76,-2.08 1.07,-1.90 1.39,-1.73 1.63,-1.46 1.87,-1.19 2.01,-0.86 2.15,-0.53 2.18,-0.17 2.21,0.18 2.12,0.52 2.03,0.87 1.84,1.18 1.65,1.48 1.37,1.70 1.09,1.93 0.75,2.05 0.41,2.18 0.05,2.19 -0.30,2.20 -0.64,2.09 -0.98,1.98 -1.27,1.77 -1.57,1.56 -1.57,1.57 -1.57,1.57 -1.73,1.35 -1.90,1.14 -2.01,0.90 -2.12,0.66 -2.16,0.39 -2.21,0.13 -2.20,-0.13 -2.18,-0.40 -2.10,-0.65 -2.02,-0.91 -1.88,-1.14 -1.74,-1.36 -1.55,-1.55 -1.36,-1.74 -1.14,-1.88 -0.91,-2.02 -0.65,-2.10 -0.40,-2.18 -0.13,-2.20 0.13,-2.21 0.39,-2.16 0.66,-2.12 0.90,-2.01 1.14,-1.90 1.35,-1.73 1.57,-1.57 1.57,-1.57 L 1.57,-1.57 Z"></path></g><g transform="translate(146.46717228929174 58.42146618225229) rotate(0 0.00005967608558421489 0.000059676085811588564)" stroke="none"><path fill="#6741d9" d="M 1.57,-1.57 Q 1.57,-1.57 1.77,-1.27 1.98,-0.98 2.09,-0.64 2.20,-0.29 2.19,0.05 2.18,0.41 2.05,0.75 1.93,1.09 1.70,1.37 1.48,1.65 1.18,1.84 0.87,2.04 0.52,2.12 0.18,2.21 -0.17,2.18 -0.53,2.15 -0.86,2.01 -1.19,1.87 -1.46,1.63 -1.73,1.39 -1.90,1.07 -2.08,0.76 -2.15,0.41 -2.21,0.05 -2.17,-0.29 -2.12,-0.65 -1.96,-0.97 -1.80,-1.29 -1.54,-1.54 -1.29,-1.80 -0.97,-1.96 -0.65,-2.12 -0.29,-2.17 0.06,-2.21 0.41,-2.15 0.76,-2.08 1.07,-1.90 1.39,-1.73 1.63,-1.46 1.87,-1.19 2.01,-0.86 2.15,-0.53 2.18,-0.17 2.21,0.18 2.12,0.52 2.03,0.87 1.84,1.18 1.65,1.48 1.37,1.70 1.09,1.93 0.75,2.05 0.41,2.18 0.05,2.19 -0.30,2.20 -0.64,2.09 -0.98,1.98 -1.27,1.77 -1.57,1.56 -1.57,1.57 -1.57,1.57 -1.73,1.35 -1.90,1.14 -2.01,0.90 -2.12,0.66 -2.16,0.39 -2.21,0.13 -2.20,-0.13 -2.18,-0.40 -2.10,-0.65 -2.02,-0.91 -1.88,-1.14 -1.74,-1.36 -1.55,-1.55 -1.36,-1.74 -1.14,-1.88 -0.91,-2.02 -0.65,-2.10 -0.40,-2.18 -0.13,-2.20 0.13,-2.21 0.39,-2.16 0.66,-2.12 0.90,-2.01 1.14,-1.90 1.35,-1.73 1.57,-1.57 1.57,-1.57 L 1.57,-1.57 Z"></path></g><g transform="translate(102.87235415662326 26.557423495609328) rotate(0 0.00005967608558421489 0.000059676085811588564)" stroke="none"><path fill="#6741d9" d="M 1.57,-1.57 Q 1.57,-1.57 1.77,-1.27 1.98,-0.98 2.09,-0.64 2.20,-0.29 2.19,0.05 2.18,0.41 2.05,0.75 1.93,1.09 1.70,1.37 1.48,1.65 1.18,1.84 0.87,2.04 0.52,2.12 0.18,2.21 -0.17,2.18 -0.53,2.15 -0.86,2.01 -1.19,1.87 -1.46,1.63 -1.73,1.39 -1.90,1.07 -2.08,0.76 -2.15,0.41 -2.21,0.05 -2.17,-0.29 -2.12,-0.65 -1.96,-0.97 -1.80,-1.29 -1.54,-1.54 -1.29,-1.80 -0.97,-1.96 -0.65,-2.12 -0.29,-2.17 0.06,-2.21 0.41,-2.15 0.76,-2.08 1.07,-1.90 1.39,-1.73 1.63,-1.46 1.87,-1.19 2.01,-0.86 2.15,-0.53 2.18,-0.17 2.21,0.18 2.12,0.52 2.03,0.87 1.84,1.18 1.65,1.48 1.37,1.70 1.09,1.93 0.75,2.05 0.41,2.18 0.05,2.19 -0.30,2.20 -0.64,2.09 -0.98,1.98 -1.27,1.77 -1.57,1.56 -1.57,1.57 -1.57,1.57 -1.73,1.35 -1.90,1.14 -2.01,0.90 -2.12,0.66 -2.16,0.39 -2.21,0.13 -2.20,-0.13 -2.18,-0.40 -2.10,-0.65 -2.02,-0.91 -1.88,-1.14 -1.74,-1.36 -1.55,-1.55 -1.36,-1.74 -1.14,-1.88 -0.91,-2.02 -0.65,-2.10 -0.40,-2.18 -0.13,-2.20 0.13,-2.21 0.39,-2.16 0.66,-2.12 0.90,-2.01 1.14,-1.90 1.35,-1.73 1.57,-1.57 1.57,-1.57 L 1.57,-1.57 Z"></path></g></svg>