<svg version="1.1" xmlns="http://www.w3.org/2000/svg" viewBox="0 0 657.5219398552945 345.55817230714206" width="657.5219398552945" height="345.55817230714206"><!-- svg-source:excalidraw --><metadata></metadata><defs><style class="style-fonts">
      </style></defs><rect x="0" y="0" width="657.5219398552945" height="345.55817230714206" fill="transparent"></rect><g stroke-opacity="0.8" fill-opacity="0.8" stroke-linecap="round" transform="translate(10 10) rotate(0 318.76096992764724 162.77908615357103)"><path d="M0 0 C0 0, 0 0, 0 0 M0 0 C0 0, 0 0, 0 0 M1.57 27.49 C4.85 23.25, 6.78 13.32, 21.25 -1.62 M-0.39 25.9 C9.91 13.69, 17.2 6.57, 21.36 1.49 M0.46 51.76 C10.65 37.47, 16.42 30.37, 40.78 -0.75 M-1.69 48.92 C12.04 31.62, 26.49 15.61, 41.73 -0.05 M0 76.99 C14.77 50.74, 31.3 33.33, 67.36 1.19 M-1.53 74.61 C11.64 56.99, 24.62 42.11, 62.07 -0.41 M2.07 95.03 C28.2 63.85, 47.03 36.64, 84.16 2.08 M-1.93 99.54 C26.22 66.25, 49.73 39.57, 86.93 0.44 M0.39 121 C34.69 83.18, 69.62 48.25, 106.56 -0.93 M0.36 122.87 C38.19 79.19, 72.24 42.97, 106.01 -2.32 M2.95 147.58 C43.87 90.52, 89.32 42.09, 128.52 2.37 M-0.27 145.16 C41.17 100.16, 81.26 53.86, 127.99 -0.17 M-2.63 171.58 C49.5 108.26, 104.55 51.26, 144.74 -2.36 M-1.53 171.44 C46.11 118.42, 91.15 66.76, 149.42 -0.6 M1.46 196.86 C46.33 144.12, 89.34 91.72, 170.6 1.08 M1.67 195.01 C55.93 128.04, 112.87 66.2, 170.22 -1.4 M2.49 221.25 C47.8 166.78, 101.7 107.93, 190.89 2.25 M-0.58 219.36 C37.16 174.41, 79.5 127.17, 189.85 -0.5 M1.85 242.89 C53.53 182.37, 106.5 116.83, 210.47 -0.84 M0 242.47 C72.28 162.4, 144.14 79.86, 211.98 -0.19 M-1.44 267.69 C51.77 208.5, 105.71 150.76, 234.5 -0.93 M1.19 268.96 C47.1 214.31, 94.93 160.13, 234.19 0.49 M-2.07 293.71 C74.01 205.66, 149.26 118.52, 255.39 -0.95 M-1.11 292.85 C60.65 224.05, 120.79 153.04, 253.88 0.79 M-0.48 318.69 C99.86 203.46, 198.08 92.77, 276.63 0.92 M-0.04 317.5 C89.13 213.4, 177.67 112.06, 276.4 -0.25 M14.64 327.53 C84.02 241.65, 154.89 160.93, 298.39 0.15 M13.37 325.56 C75.95 253.74, 139.5 181.43, 297.39 -1.05 M34.95 327.62 C106.27 241.72, 178.49 158.62, 319.93 1.56 M34.89 324.82 C121.84 226.95, 206.75 130.93, 318.32 0.73 M56.61 325.75 C134.95 233.72, 216.21 142.9, 341.1 0.64 M56.66 325.03 C154.91 210.55, 257.75 93.83, 338.79 -0.89 M76.03 327.06 C158.22 240.5, 230.67 151.93, 359.2 -0.57 M76.92 324.62 C174.36 211.67, 273.91 97.99, 359.35 -0.29 M100.06 326.04 C177.92 231.78, 257.2 143.04, 381.31 1.99 M97.62 324.7 C161.58 257.66, 220.82 189.07, 381.33 1.07 M118.63 325.55 C182.25 250.58, 248.24 177.03, 401.34 0.9 M119.46 325.61 C230.56 201.84, 335.71 79.43, 402.1 -0.08 M138.66 327.82 C209.69 250.57, 271.1 177.59, 424.8 1.49 M140.52 326.47 C204.59 249.8, 269.85 175.31, 423.09 -0.75 M163.47 325.75 C247.88 232.73, 328.47 137.7, 444.93 0.5 M162.21 327.04 C270.4 202.75, 379.09 79.03, 444.28 -0.47 M182.2 326.46 C251.53 244.57, 326.97 158.88, 464.86 1 M182.49 326.78 C278.81 209.93, 377.89 97.01, 465.45 -0.52 M202.73 326.21 C294.85 216.88, 386.04 113.23, 486.83 -1.53 M203.89 326.81 C275.79 249.02, 341.92 171.35, 487.48 -1.08 M223.83 326.01 C331.45 202.43, 439.58 81.61, 509.57 -0.16 M225.97 325.21 C341.13 193.57, 452.81 65.18, 509.54 -0.49 M244.86 325.99 C328.68 228.59, 417.21 133.1, 529.87 1.42 M246.53 326 C334.65 225.61, 423.47 123.56, 530.33 -0.63 M267.37 323.86 C358.8 219.03, 448.05 116.07, 552.35 -0.36 M267.04 325.59 C344.9 231.29, 425.63 139.53, 551.48 0.02 M288.4 325.68 C382.03 221.29, 473.03 118.2, 574.54 -2.24 M289.83 325.82 C366.32 238.13, 441.98 151.91, 572.62 -1.07 M310.24 323.8 C413.64 209.83, 511.27 94.46, 591.88 0.97 M311.13 326.52 C366.49 256.36, 423.55 191, 594.07 1.32 M333.75 324.08 C435.67 201.96, 544.03 79.97, 614.25 -0.5 M332.64 326.31 C398.73 247.16, 466.39 168.88, 614.62 -0.61 M351.66 323.75 C417.35 258.34, 475.71 187.43, 634.73 0.36 M352.51 325.4 C423.97 244.57, 494.21 165.13, 635 0.27 M374.22 327.26 C430.06 266.37, 483.73 203.3, 639.62 19.85 M374.31 327.22 C443.01 246.27, 512.61 165.69, 638.73 23.12 M396.31 324.41 C488.57 216.87, 582.76 108.89, 639.18 44.71 M394 325.3 C493.52 215.4, 587.51 108.22, 639.54 47.26 M414.58 324.07 C463.51 269.45, 509.97 211.06, 638.76 68.36 M417.42 326.74 C474.43 261.18, 530.22 196.35, 638.88 70.34 M440.19 328.27 C488.29 268.94, 541.22 205.8, 638.93 94.07 M438.3 326.54 C497.27 257.22, 555.04 190.77, 639.45 94.66 M456.25 327.2 C526.13 255.34, 588.56 179.13, 639.78 120.61 M458.84 326.19 C492.51 282.16, 530.61 239.29, 639.52 119.86 M482.37 325.73 C529.26 266.56, 582.72 206.47, 639.26 141.28 M478.79 324.47 C523.91 275.06, 570.91 220.67, 639.19 143.18 M498.93 325.26 C540.19 278.26, 585.86 232.98, 637.12 165.75 M500.21 324.82 C534.83 284.66, 564.99 249.31, 638.22 168.48 M526.48 326.93 C566.44 273.38, 616.87 218.59, 640.81 191.13 M523.02 327.08 C549.18 292.05, 579.53 259.76, 636.71 193.38 M545.27 328.12 C577.98 285.71, 617.19 243.34, 636.2 219.98 M542.58 327.22 C571.59 290.32, 602.01 255.84, 640.22 217.42 M564.07 327.23 C590.5 295.81, 620.54 257.69, 638.85 239.52 M564.11 327.14 C585.05 304.39, 602.24 282.64, 636.04 243.16 M585.17 329.02 C599.17 312.76, 612.41 288.9, 639.33 269.52 M585.6 324.45 C600.69 309.48, 617.26 291.84, 637.22 267.19 M606.43 326.28 C619.4 315.84, 632.12 303.96, 641.48 292.32 M607.51 326.62 C618.49 314.47, 627.53 301.3, 636.5 290.98 M627.2 325.89 C629.39 326.54, 630.93 321.39, 635.99 312.32 M629.48 325.64 C631.63 323.24, 634.31 317.28, 638.57 315.76 M0.31 325.83 C0.31 325.83, 0.31 325.83, 0.31 325.83 M0.31 325.83 C0.31 325.83, 0.31 325.83, 0.31 325.83 M25.11 323.96 C15.92 317.7, 13.12 317.82, 0.4 305.02 M25.38 325.68 C18.66 320.02, 12.03 313.36, 0.66 303.88 M49.61 322.38 C34.81 311.33, 23.36 301.41, -1.49 282.94 M49.33 325.15 C35.17 316.7, 22.21 304.32, -0.91 282.81 M69.98 323.7 C57.92 306.91, 40.42 291.72, -3.55 262.71 M72.9 324.96 C50.36 306.8, 28.09 286.47, 0.45 261.05 M97.43 325.09 C66.88 303.94, 42.54 272.67, 2.5 243.76 M95.48 324.18 C60.59 293.79, 24.87 260.63, 0.62 241.79 M120.47 328.55 C79.52 283.68, 33.56 246.39, -3.81 222.77 M123.05 324.67 C88.05 300.93, 59.26 269.33, 0.56 218.8 M143.9 322.7 C96.13 286.35, 49.66 237.51, -2.68 196.62 M147.71 324.28 C93.93 281.92, 39.81 232, -0.14 199.05 M167.5 322.74 C108.05 272.67, 54.75 221.51, -0.87 173.92 M170.42 324.17 C100.19 265.61, 35.51 207.77, -1.55 177.08 M194.59 328.67 C133.15 274.89, 73.64 226.25, -2.74 158.73 M196.05 324.65 C144.74 282.7, 93.48 239.32, 0.7 157.28 M221.9 326.05 C161.35 282.84, 111.89 235.99, 0.56 137.37 M218.06 326.07 C161.07 277.4, 106.47 228.77, 0.22 134.21 M243.31 323.83 C152.06 244.78, 57.77 164, 1.69 113.61 M244.81 325.75 C159.77 256.31, 73.85 181.78, -1.73 114.43 M270.1 324.03 C170.42 235.82, 67.77 148.51, 1.95 90.57 M267.31 326.65 C180.98 248.07, 93.34 171.39, 0.5 91.59 M293.95 324.44 C221.18 261.43, 152.81 201.96, -0.7 70.06 M291.67 326.34 C210.22 249.71, 125.46 174.69, -0.82 71.27 M316.96 324.81 C204.58 226.32, 92.45 130.83, 0.33 49.01 M317.87 325.58 C252.87 270.94, 188.9 214.16, -0.03 49.59 M340.31 325.77 C261.67 260.49, 186.16 193.1, 1.21 28.8 M340.44 324.49 C264.13 261.86, 187.62 194.79, -0.38 27.9 M367.28 326.45 C264.45 239.18, 160.38 152.44, 1.64 8.24 M366.51 325.81 C216.93 201.6, 70.96 73.62, -0.43 6.97 M390.18 325.48 C241.72 198.52, 97.8 72.53, 15.15 -0.35 M390.37 325.82 C307.9 258.22, 226.48 187.36, 15.63 0.28 M415.11 325.7 C289.63 217.22, 167.58 109.55, 41.09 -1.29 M414.93 325.83 C291.9 219.02, 172.44 115.2, 39.96 -0.1 M437.75 327.15 C341.51 240.56, 241.48 154.08, 63.46 -1.18 M439.25 325.62 C350.09 249.95, 262.88 173.55, 64.25 0.11 M463.05 326.39 C315.98 197.45, 171.37 68.69, 88.88 0.89 M463.67 325.91 C353.34 228.87, 242.09 132.96, 88.44 0.48 M486.54 325.52 C389 241.28, 292.55 157.56, 111.3 -1.66 M487.51 325.83 C348.31 206.54, 210.65 86.18, 113.31 0.24 M513 324.95 C432.95 255.03, 349.42 184.32, 138.71 -0.97 M511.79 325.21 C370.92 203.97, 232.57 83.9, 138.21 0.74 M535.32 326.56 C429.62 232.6, 319.83 139.56, 163.24 -1.43 M536.13 325.93 C459.39 259.42, 380.76 191.46, 162.18 -0.47 M559.74 326.46 C462.61 239.53, 363.11 156.98, 184.7 -0.94 M561.45 326.1 C446.9 226.13, 334.97 128.58, 186.57 -0.78 M583.9 324.02 C456.39 212.49, 330.14 101.13, 210.25 -1.34 M584.47 325.64 C483.26 237.56, 380.58 147.83, 210.11 0.04 M609.64 324.41 C517.57 242.61, 421.95 161.66, 234.81 0.54 M610.69 325.36 C478.49 212.04, 350.62 99.49, 235.43 -1.09 M632.95 324.79 C527.18 226.65, 413.84 130.29, 258.05 -0.78 M633.22 325.97 C488.85 202.75, 345.39 76.73, 260.28 -0.12 M636.65 308.41 C560.25 239.09, 481.73 169.66, 283.6 -0.8 M637.01 307.17 C533.39 221.89, 431.2 132.75, 283.49 0.22 M638.12 286.69 C533.54 198.12, 427.99 104.78, 306.77 -1.93 M638.66 286.41 C550.6 210.59, 459.31 130.76, 307.69 -1.08 M638.66 266.17 C554.29 193.95, 466.82 117.76, 331 -0.57 M639.12 264.74 C571.23 204.95, 502.42 145.95, 332.66 0.09 M639.55 242.73 C560 179.88, 486.88 110.36, 358.94 1.4 M637.86 245.55 C528.01 147.36, 416.2 52.02, 357 0.74 M636.4 220.46 C584.84 172.33, 525.37 123.43, 379.87 1.16 M637.61 222.64 C548.27 142.45, 458.34 64.19, 382.48 -0.5 M638.7 201.62 C568.05 141.5, 501.71 83.45, 406.18 2.03 M639.36 201.72 C572.69 143.19, 502.21 83.05, 406.17 -1.22 M636.09 181.46 C568.43 117.93, 494.75 60.54, 431.94 -0.46 M639.36 179.81 C556.94 114.16, 476.5 43.33, 429.36 -1.41 M640.84 161.31 C598.99 124.38, 561.32 91.89, 452.49 -2.26 M638.54 160.09 C589.09 114.33, 541.72 72.69, 454.1 1.25 M637.21 139.61 C607.21 113.88, 572.82 80.34, 481.85 -0.86 M638.75 138.82 C581.26 89.55, 523.99 39.07, 478.83 -1.59 M636.29 113.47 C594.05 78.02, 545.18 34.16, 502.02 -3.37 M636.75 116.5 C602.64 84.11, 564.94 51.84, 504.68 1.42 M634.97 98.4 C607.16 66.32, 572.76 40.16, 530.29 0.34 M636.3 94 C611 74.08, 588.49 52.32, 526.45 0.06 M640.43 75.5 C608.34 47.95, 584.45 29.5, 548.68 -1.28 M638.61 75.12 C618.17 58.44, 599.68 40.94, 552.01 -1.75 M636.99 50.58 C616.49 40.21, 599.27 25.41, 576.02 -0.45 M640.16 53.31 C624.45 41.21, 611.47 28.86, 577.29 -0.27 M636 30.67 C623.86 16.41, 611.42 5.74, 599.2 -1.16 M639.24 31.73 C626.21 19.16, 613.31 9.42, 601.6 0.4 M637.48 14.42 C632.03 9.7, 629.19 5.45, 623.69 -3.03 M638.06 9.85 C632.68 9.22, 629.15 2.71, 626.2 -0.47" stroke="#ffec99" stroke-width="2" fill="none"></path><path d="M-0.01 0.03 C249.66 1.72, 495.87 0.21, 638.55 -1.23 M0.57 -0.37 C249.03 4.82, 499.62 4.66, 637.84 0.74 M636.66 1.89 C636.4 116.75, 635.98 238.6, 638.1 324.02 M636.77 1.32 C634.05 87.27, 634.91 173.4, 637.84 325.83 M638.93 326.63 C481.38 328.27, 324.68 328.32, -0.31 324.01 M638.31 326.06 C391.81 323.95, 144.11 324.14, 0.03 326.27 M0.98 324.18 C-2.95 235.07, -0.44 143.49, 0.25 2.1 M0.91 326.04 C-1.82 239.95, -0.96 151.27, -0.48 -1.15" stroke="#ffd700" stroke-width="4" fill="none"></path></g></svg>