<svg version="1.1" xmlns="http://www.w3.org/2000/svg" viewBox="0 0 107.82036158007395 114.0171340053497" width="107.82036158007395" height="114.0171340053497"><!-- svg-source:excalidraw --><metadata></metadata><defs><style class="style-fonts">
      </style></defs><rect x="0" y="0" width="107.82036158007395" height="114.0171340053497" fill="transparent"></rect><g transform="translate(57.66402659796222 41.62580167643853) rotate(0 -3.753845807925245 15.382765326236324)" stroke="none"><path d="M-44.47 7.72 C-44.47 7.72, -44.47 7.72, -44.47 7.72 M-44.47 7.72 C-44.47 7.72, -44.47 7.72, -44.47 7.72 M-48.08 20.27 C-37.44 9.97, -30.02 1.12, -24.85 -3.24 M-46.8 16.35 C-41.49 10.38, -36.29 2.11, -26.72 -5.79 M-50.14 24.91 C-35.31 9.64, -31.39 -1.38, -24.51 -4.71 M-47.11 22.32 C-36.61 14.8, -28.66 4.23, -22.41 -7.73 M-41.58 23.15 C-41.93 22.42, -32.68 11.05, -13.96 -6.1 M-44.79 25.63 C-34.25 16.81, -25.96 3.06, -16.44 -5.02 M-44.14 31.28 C-28.6 16.57, -21.88 0.61, -7.42 -5.15 M-43.57 31.46 C-32.56 16.15, -24.38 4.88, -10.72 -5.36 M-39.39 37.19 C-29.41 20.05, -16.12 7.61, -7.38 -7.18 M-41.63 35.69 C-28.78 22.37, -20.11 10.5, -6.34 -4.77 M4.36 -17.27 C6.44 -20.67, 11.53 -25.93, 11.49 -26.65 M3.19 -14.6 C2.76 -17.09, 7.02 -21.6, 14.28 -30.87 M-42.12 33.52 C-29.51 28.07, -20.09 14.62, -4.45 -6.18 M-39.04 39 C-26.84 22.59, -13.68 7.65, -1.66 -3.63 M-2.26 -6.08 C8.29 -16.72, 8.99 -13.61, 17 -30.53 M2.16 -8.58 C9.81 -15.99, 17.02 -25.5, 21.18 -31.14 M-31.24 35.54 C-24.07 23.68, -12.75 11.37, 2.53 -3.1 M-34.18 36.89 C-21.31 24.18, -8.14 9.5, 0.76 0.17 M-2.33 -1.34 C7.11 -11.26, 20.74 -28.37, 29.71 -32.18 M-1.02 -3.41 C9.81 -10.21, 16.01 -16.15, 27.72 -30.5 M-25.49 38.29 C-12.37 20.1, -1.77 6.49, 28.23 -26.73 M-28.16 38.96 C-8.83 17.8, 9.56 -5.53, 28.44 -27.81 M-22.27 39.44 C-9.22 25.73, 5.7 7.88, 33.35 -29.17 M-23.43 41.26 C-6.78 19.96, 8.84 0.24, 32.16 -26.84 M-18.17 36.9 C-6.32 20.04, 6.94 6.79, 38.73 -27.45 M-19.25 39.54 C2.27 16.48, 24.66 -9.46, 37.66 -22.92 M-14.21 39.57 C2.45 26.21, 13.55 7.21, 37.96 -21.13 M-14.49 43.26 C-2.03 23.41, 14.54 6.15, 36.45 -19.45 M-11.54 44.27 C1.05 26.41, 13.11 8.13, 41.94 -15.88 M-13.31 43.33 C1.94 26.29, 14.28 12.93, 39.95 -16.17 M-9.97 42.19 C4.15 24.18, 19.56 7.98, 43.76 -11.76 M-5.94 44.85 C9.37 26.31, 26.89 8.07, 38.08 -11.12 M-6.44 41.43 C12.92 23.78, 27.69 5.09, 40.26 -0.13 M-1.39 43.81 C10.9 29.05, 25.44 8.76, 38.65 0.6 M-1.53 49.45 C6.98 35.63, 19.17 20.17, 36.74 13.99 M-0.26 47.92 C13.29 35.35, 20.81 23.95, 33.71 10.78 M2.7 46.88 C9.83 40.24, 15.83 37.3, 34.48 17.21 M5.24 48.55 C13.35 36.43, 21.92 28.09, 28.9 17.65 M9.58 44.98 C13.78 45.93, 21.61 40.22, 27.05 24.31 M11.84 48.5 C13.24 40.78, 20.5 37.28, 29.5 28.63 M17.15 47.72 C16.07 44.66, 22.09 43.77, 30.84 30.9 M16.39 50.19 C18.7 46.16, 20.16 43.03, 28.78 35.05 M18.33 51.78 C20.72 49.18, 22.89 42.41, 25.8 41.27 M20.26 51.06 C20.65 48.52, 22.23 47.27, 28.3 40.09 M21.14 53.25 C23.63 49.38, 26.87 48.93, 27.01 48.26 M21.58 53.02 C23.34 52.42, 24.75 50.56, 27.78 45.84 M22.41 57.91 C25.09 55.1, 26.08 54.85, 28.56 52.86 M22.94 57.29 C24.5 55.49, 26.39 54.11, 27.63 53.28 M25.15 61.81 C25.63 61.53, 26.12 59.84, 27.02 58.99 M25.02 61.71 C25.81 60.88, 26.04 60.34, 27.09 59.28 M-39.44 36.22 C-39.44 36.22, -39.44 36.22, -39.44 36.22 M-39.44 36.22 C-39.44 36.22, -39.44 36.22, -39.44 36.22 M-32.75 38.39 C-34.69 35.03, -40.72 28.12, -47.58 22.78 M-31.18 39.11 C-33.98 36.07, -39.84 29.02, -45.82 23.06 M-20.49 41.97 C-31.17 37.36, -33.56 28.56, -49.88 20.46 M-23.11 40.37 C-29.93 34.35, -39.73 24.22, -48 19.53 M-11.15 43.86 C-25.38 30.75, -28.89 24.24, -47.96 18.6 M-16.65 39.82 C-25.48 33.76, -33.88 25.08, -45.94 13.99 M-8.04 47.69 C-20.5 36.46, -24.68 25.89, -43.67 7.95 M-7.94 44.13 C-13.85 35.88, -22.85 31.3, -46.66 11.22 M2.38 42.81 C-10.09 37.65, -21.87 26.57, -46.17 7.05 M1.28 45.77 C-11.79 33.88, -22.84 22.96, -42.78 7.68 M26.55 62.41 C26.16 61.53, 26.56 61.45, 25.74 60.9 M26.9 62.06 C26.47 61.59, 25.51 61.15, 25.52 60.8 M6.94 49.48 C-1.47 35.84, -17.78 20.59, -43.67 6.81 M11.16 47.01 C-2.59 38.86, -14.48 25.57, -40.58 3.86 M27.22 55.5 C25.79 54.48, 22.81 54.5, 21.01 51.04 M25.86 56.91 C24.11 54.87, 22.37 53.38, 20.57 52.03 M14.95 46.33 C8.23 36.06, -1.49 31.15, -39.97 2.97 M19.46 47.23 C3.05 33.55, -14.69 22.11, -36.96 2 M27.47 47.5 C5.24 33.55, -10.25 19.67, -37.68 -1.12 M27.03 49.48 C6.86 32.09, -11.6 16.62, -34.55 -0.13 M23.8 48.97 C8.32 33.17, -1.85 19.97, -27.54 -4.98 M26.27 44.63 C14.7 34.21, -1.36 22.54, -29.89 -2.61 M27.78 40.48 C9.49 24.08, -8.51 15.52, -26.26 -9.01 M27.53 39.14 C4.32 23.31, -15.02 3.05, -27.56 -8.09 M25.1 38.9 C13.73 26.8, 5.04 17.14, -18.86 -11.14 M26.51 36.68 C12.24 22.62, -2.77 11.87, -20.71 -6.92 M29.57 28.97 C9.89 16.26, -1.8 6.36, -19.52 -7.2 M28.87 32.65 C14.47 19.42, -0.71 7.71, -17.59 -7.76 M29.42 24.1 C16.39 14.84, 5.63 7.43, -9.51 -6.85 M26.7 24.7 C14.1 15.69, 1.58 3.05, -9.27 -7.76 M30.75 25.28 C20.02 17.71, 13 3.78, 1.06 -4.81 M28.23 21.37 C18.33 12.34, 11.19 5.64, 2.92 -2.04 M34.29 16.47 C18.1 13.26, 9.3 5.13, 2.86 -8.97 M28.91 19.3 C19.53 9.18, 8.56 -0.43, 3.17 -6.06 M33.19 13.52 C28.48 5.88, 15.63 0.74, -0.89 -15.58 M31.35 13.82 C23.65 7.09, 14.73 -1.61, 3.3 -13.06 M35.46 9.63 C24.34 -0.26, 12.42 -5.35, -0.16 -15.19 M34.1 10.2 C22.92 -1.48, 13.97 -6.61, 3.2 -18.25 M31.29 1.51 C20.41 -2.25, 10.25 -14.97, 1.26 -20.05 M33.14 3.58 C23.68 -3.2, 12.8 -12.91, 4.5 -20.42 M36.47 4.28 C27.33 -3.65, 23.84 -10.77, 9.42 -20.47 M35.61 -0.43 C29.51 -7.67, 19.06 -13.09, 8.44 -24.62 M40.2 -6.47 C31.93 -11.71, 23.93 -20.22, 13.53 -25.44 M37.86 -1.91 C30.12 -7.52, 22.48 -14.59, 11.48 -24.98 M38.32 -9.78 C32.1 -12.27, 23.24 -19.97, 14.21 -31.08 M40.9 -7.95 C28.88 -13.55, 18.67 -23.6, 11.75 -31.43 M41.3 -8.43 C37.83 -16.6, 31.67 -24.69, 16.96 -32.55 M40.66 -12.12 C34.51 -16.77, 28.46 -20.92, 16.83 -31.83 M42.26 -18.25 C37.02 -17.86, 34.78 -24.48, 20.9 -31.02 M38.27 -17.86 C34.38 -24.37, 28.96 -27.72, 22.69 -29.25" stroke="#a5d8ff" stroke-width="0.5" fill="none"></path><path fill="#1971c2" d="M -2.66,0.20 Q -2.66,0.20 -2.77,-0.85 -2.87,-1.91 -2.99,-3.18 -3.11,-4.45 -3.18,-5.77 -3.24,-7.09 -3.29,-8.39 -3.34,-9.69 -3.20,-11.27 -3.07,-12.86 -2.78,-14.38 -2.49,-15.91 -1.63,-17.80 -0.77,-19.70 0.05,-20.90 0.88,-22.10 1.56,-23.01 2.24,-23.92 3.74,-25.26 5.25,-26.60 6.61,-27.74 7.97,-28.88 8.82,-29.63 9.67,-30.39 10.61,-31.07 11.54,-31.75 12.96,-32.52 14.38,-33.28 15.48,-33.71 16.57,-34.13 18.03,-34.38 19.49,-34.63 21.20,-34.68 22.91,-34.73 24.15,-34.55 25.40,-34.37 26.90,-33.94 28.41,-33.51 29.84,-32.82 31.27,-32.13 32.51,-31.42 33.75,-30.71 34.85,-30.01 35.94,-29.31 37.18,-28.06 38.41,-26.80 39.25,-25.46 40.10,-24.11 40.63,-22.95 41.17,-21.79 41.69,-20.37 42.20,-18.95 42.66,-17.23 43.11,-15.52 43.30,-13.67 43.49,-11.82 43.37,-10.26 43.26,-8.71 42.92,-7.05 42.57,-5.38 42.13,-4.13 41.69,-2.87 40.82,-0.84 39.96,1.18 39.37,2.43 38.78,3.68 38.11,5.13 37.43,6.58 36.98,7.73 36.52,8.88 35.95,10.20 35.37,11.53 34.89,12.72 34.42,13.90 33.87,15.70 33.32,17.50 32.64,19.96 31.97,22.42 31.34,24.69 30.71,26.97 30.17,29.02 29.64,31.06 29.14,33.53 28.64,36.00 28.29,37.98 27.94,39.96 27.86,41.53 27.77,43.09 27.80,44.17 27.83,45.25 27.88,46.43 27.92,47.60 28.00,48.80 28.08,50.00 28.37,51.88 28.66,53.76 29.04,55.49 29.42,57.22 29.63,58.36 29.85,59.50 29.97,60.55 30.09,61.61 29.48,63.13 28.88,64.64 27.83,65.03 26.78,65.43 25.65,65.25 24.52,65.08 23.60,64.53 22.69,63.98 22.10,62.52 21.51,61.06 21.05,59.77 20.59,58.48 19.83,57.21 19.06,55.95 18.30,55.02 17.53,54.10 16.57,53.27 15.61,52.44 14.72,51.87 13.82,51.30 12.58,50.74 11.35,50.18 9.79,49.89 8.24,49.61 7.15,49.36 6.06,49.12 4.67,48.80 3.29,48.48 1.78,48.04 0.28,47.60 -1.09,47.22 -2.47,46.85 -4.27,46.36 -6.07,45.88 -7.84,45.49 -9.61,45.10 -10.78,44.96 -11.94,44.82 -13.16,44.68 -14.38,44.54 -16.48,44.27 -18.58,43.99 -19.81,43.74 -21.05,43.48 -22.31,43.21 -23.56,42.93 -25.54,42.57 -27.52,42.22 -29.44,41.84 -31.36,41.46 -32.40,41.20 -33.44,40.93 -35.10,40.39 -36.76,39.84 -38.44,38.93 -40.12,38.01 -41.53,36.92 -42.94,35.83 -43.81,34.92 -44.67,34.02 -45.96,32.44 -47.25,30.85 -48.11,29.56 -48.96,28.27 -49.54,27.12 -50.12,25.98 -50.44,24.85 -50.76,23.73 -50.87,22.57 -50.97,21.42 -51.01,20.33 -51.04,19.24 -50.89,17.98 -50.75,16.72 -50.54,15.31 -50.32,13.91 -49.75,11.95 -49.17,10.00 -48.60,8.63 -48.03,7.26 -46.82,5.51 -45.62,3.75 -44.84,2.90 -44.06,2.06 -42.90,0.84 -41.73,-0.37 -40.52,-1.59 -39.30,-2.80 -38.47,-3.53 -37.63,-4.26 -36.64,-5.01 -35.65,-5.75 -34.17,-6.75 -32.70,-7.74 -31.31,-8.44 -29.92,-9.15 -28.77,-9.67 -27.61,-10.19 -26.26,-10.61 -24.91,-11.04 -23.85,-11.13 -22.78,-11.22 -21.65,-11.26 -20.52,-11.29 -19.35,-11.32 -18.18,-11.35 -16.45,-11.27 -14.72,-11.18 -13.08,-10.90 -11.44,-10.63 -10.11,-10.40 -8.78,-10.18 -7.15,-9.83 -5.52,-9.47 -4.07,-9.04 -2.63,-8.60 -1.57,-8.02 -0.51,-7.43 1.56,-4.31 3.64,-1.19 3.53,-0.62 3.41,-0.05 3.12,0.45 2.83,0.95 2.39,1.34 1.96,1.73 1.42,1.95 0.88,2.18 0.30,2.22 -0.27,2.26 -0.83,2.12 -1.40,1.97 -1.89,1.66 -2.38,1.34 -2.74,0.88 -3.10,0.42 -3.30,-0.12 -3.49,-0.66 -3.50,-1.25 -3.52,-1.83 -3.34,-2.39 -3.16,-2.94 -2.82,-3.41 -2.48,-3.88 -2.00,-4.22 -1.52,-4.56 -0.97,-4.72 -0.41,-4.89 0.16,-4.87 0.75,-4.85 1.29,-4.64 1.84,-4.44 2.29,-4.07 2.74,-3.70 3.05,-3.21 3.36,-2.71 3.50,-2.15 3.63,-1.58 3.58,-1.00 3.53,-0.42 3.30,0.11 3.06,0.64 2.67,1.07 2.28,1.50 1.77,1.78 1.26,2.07 0.68,2.17 0.11,2.28 -0.46,2.19 -1.03,2.11 -1.55,1.85 -2.07,1.58 -2.48,1.17 -2.89,0.75 -3.15,0.23 -3.40,-0.29 -3.48,-0.86 -3.55,-1.44 -3.55,-1.44 -3.55,-1.44 -3.42,-0.84 -3.28,-0.23 -4.46,-1.19 -5.65,-2.15 -6.99,-2.49 -8.33,-2.84 -9.73,-3.07 -11.14,-3.30 -12.84,-3.60 -14.54,-3.89 -15.71,-4.04 -16.88,-4.18 -17.99,-4.20 -19.11,-4.23 -20.25,-4.26 -21.39,-4.29 -22.65,-4.34 -23.90,-4.39 -24.97,-4.05 -26.04,-3.71 -27.07,-3.25 -28.11,-2.79 -29.30,-2.13 -30.50,-1.46 -31.89,-0.42 -33.27,0.61 -34.48,1.76 -35.68,2.90 -36.93,4.19 -38.17,5.47 -39.25,6.67 -40.32,7.86 -41.08,8.97 -41.84,10.08 -42.30,11.11 -42.76,12.14 -43.16,13.52 -43.57,14.91 -43.79,16.39 -44.01,17.87 -44.15,19.06 -44.29,20.25 -44.29,21.37 -44.29,22.50 -43.91,23.75 -43.54,25.01 -42.88,26.10 -42.22,27.19 -41.25,28.44 -40.28,29.70 -39.02,30.93 -37.75,32.16 -36.70,32.89 -35.66,33.62 -34.44,34.25 -33.22,34.88 -31.63,35.35 -30.05,35.83 -28.27,36.25 -26.49,36.68 -24.45,37.13 -22.40,37.57 -21.17,37.84 -19.93,38.10 -18.75,38.35 -17.57,38.60 -15.66,38.95 -13.74,39.30 -12.49,39.46 -11.23,39.62 -10.02,39.81 -8.81,40.00 -6.94,40.18 -5.07,40.36 -3.09,40.56 -1.10,40.75 0.28,41.00 1.67,41.25 3.31,41.50 4.95,41.74 6.24,42.03 7.52,42.31 8.67,42.58 9.82,42.85 10.92,43.08 12.03,43.32 13.46,43.83 14.88,44.35 16.16,45.04 17.44,45.72 18.68,46.59 19.92,47.46 21.17,48.61 22.42,49.76 23.47,51.10 24.51,52.44 25.09,53.33 25.66,54.23 26.18,55.22 26.69,56.21 26.52,57.79 26.35,59.37 25.26,60.50 24.18,61.62 24.25,60.44 24.31,59.25 24.19,57.96 24.07,56.67 23.92,55.53 23.76,54.40 23.65,52.25 23.55,50.11 23.57,48.82 23.58,47.52 23.67,46.28 23.76,45.05 23.90,43.92 24.04,42.79 24.22,41.11 24.40,39.42 24.65,37.42 24.91,35.41 25.22,32.84 25.52,30.27 25.79,28.16 26.06,26.05 26.36,23.60 26.66,21.14 27.22,18.56 27.77,15.98 28.47,13.92 29.16,11.86 29.62,10.62 30.09,9.39 30.57,8.09 31.06,6.80 31.50,5.60 31.93,4.41 32.46,2.82 32.98,1.24 33.47,-0.05 33.95,-1.35 34.65,-3.16 35.34,-4.97 35.76,-6.55 36.19,-8.13 36.43,-9.77 36.68,-11.41 36.56,-12.69 36.44,-13.96 36.05,-15.36 35.65,-16.75 35.07,-18.32 34.48,-19.88 33.85,-21.12 33.22,-22.37 32.30,-23.29 31.39,-24.21 30.38,-24.84 29.38,-25.47 28.19,-26.14 27.00,-26.81 25.88,-27.29 24.76,-27.77 23.63,-28.06 22.50,-28.34 21.19,-28.41 19.88,-28.48 18.65,-28.33 17.42,-28.19 16.05,-27.70 14.69,-27.21 13.14,-26.08 11.60,-24.95 10.42,-23.75 9.24,-22.54 7.66,-20.63 6.07,-18.72 5.44,-17.67 4.80,-16.62 4.25,-15.49 3.69,-14.37 3.41,-13.21 3.13,-12.06 2.95,-10.87 2.77,-9.69 2.73,-8.40 2.68,-7.11 2.64,-5.87 2.59,-4.62 2.57,-3.47 2.54,-2.32 2.60,-1.26 2.66,-0.20 2.65,0.11 2.63,0.43 2.54,0.74 2.45,1.05 2.29,1.33 2.13,1.61 1.90,1.84 1.68,2.07 1.40,2.24 1.13,2.41 0.83,2.51 0.52,2.62 0.20,2.64 -0.11,2.67 -0.43,2.61 -0.75,2.56 -1.04,2.43 -1.34,2.30 -1.60,2.11 -1.85,1.92 -2.06,1.67 -2.26,1.41 -2.40,1.12 -2.53,0.83 -2.60,0.52 -2.66,0.20 -2.66,0.20 L -2.66,0.20 Z"></path></g></svg>