<svg version="1.1" xmlns="http://www.w3.org/2000/svg" viewBox="0 0 75.33260257417169 55.08773845658288" width="75.33260257417169" height="55.08773845658288"><!-- svg-source:excalidraw --><metadata></metadata><defs><style class="style-fonts">
      </style></defs><rect x="0" y="0" width="75.33260257417169" height="55.08773845658288" fill="transparent"></rect><g stroke-linecap="round" transform="translate(12.292678480638642 18.29912664588153) rotate(337.9044992516728 20 10)"><path d="M0.5 -0.99 L38.52 -1.56 L41.91 21.13 L-1.53 18.19" stroke="none" stroke-width="0" fill="#1971c2"></path><path d="M-0.25 0.45 C11.49 1.87, 23.42 -1.46, 39.41 -1.42 M-0.69 0.1 C9.62 -1.08, 17.96 -1.15, 39.65 -0.44 M40.19 1.62 C39.3 8.26, 38.68 13.01, 39.71 21.92 M40.59 -0.8 C40.59 7.2, 39.23 13.57, 40.13 19.14 M40.54 19.39 C25.76 20.29, 11.02 19.03, -1.82 19.52 M39.69 20.17 C30.55 20.76, 20.74 19.87, -0.8 20.4 M-0.44 21.19 C1.15 14.14, 1.09 11.07, -1.31 -1.43 M-0.08 19.88 C0.08 13.82, 0.74 6.42, -0.57 -0.49" stroke="#1971c2" stroke-width="1" fill="none"></path></g><g stroke-linecap="round" transform="translate(38.69004616077109 8.705303792463496) rotate(332.2561197640009 14.133702022087164 11.261886997816987)"><path d="M13.52 -1.56 L30.17 13.13 L13.47 20.71 L0.59 10.3" stroke="none" stroke-width="0" fill="#1971c2" fill-rule="evenodd"></path><path d="M14.28 1.61 C17.67 1.98, 21.93 5.46, 26.95 13.16 M15.51 -0.82 C19.3 3.19, 23.64 7.76, 28.58 11.6 M27.75 13.32 C24.42 14.02, 22.39 18.21, 15.96 23.32 M28.68 12.06 C22.44 15.39, 18.14 19.34, 15.54 21.96 M15.27 22.71 C10.26 18.14, 3.68 15.29, -0.87 11.45 M15.6 23.26 C11.55 19.41, 5.58 16.8, -0.74 11.16 M0.93 10.58 C6.51 7.26, 10 1.55, 15.69 0.93 M0.17 12.51 C4.31 9.07, 6.45 5.96, 15.24 -0.47" stroke="#1971c2" stroke-width="1" fill="none"></path></g></svg>